<svg xmlns="http://www.w3.org/2000/svg" width="600" height="600" viewBox="0 0 600 600">
<g>
<path d="M 299.18,70.61 L 307.46,71.18 L 311.58,71.55 L 319.71,72.79 L 323.76,73.48 L 331.84,75.38 L 344.05,78.96 L 348.53,80.45 L 357.21,83.84 L 361.50,85.59 L 369.77,89.50 L 373.85,91.51 L 381.68,95.92 L 385.54,98.18 L 392.89,103.07 L 396.50,105.57 L 403.35,110.91 L 406.71,113.64 L 413.02,119.42 L 416.11,122.36 L 421.85,128.56 L 429.80,138.29 L 431.44,140.48 L 434.36,144.58 L 435.77,146.59 L 438.30,150.46 L 439.52,152.38 L 441.72,156.16 L 442.79,158.06 L 444.74,161.90 L 445.70,163.85 L 447.48,167.92 L 448.35,169.99 L 450.03,174.42 L 450.86,176.70 L 452.50,181.65 L 455.02,189.81 L 455.48,191.36 L 456.50,195.12 L 457.02,197.09 L 458.12,201.45 L 459.23,205.90 L 461.38,215.26 L 461.89,217.53 L 462.81,221.81 L 463.24,223.87 L 463.95,227.49 L 464.12,228.34 L 464.39,229.86 L 464.52,230.58 L 464.72,231.83 L 464.81,232.42 L 464.93,233.36 L 465.00,234.37 L 465.00,234.49 L 465.47,235.21 L 465.78,235.65 L 466.83,236.95 L 467.41,237.67 L 468.97,239.48 L 469.80,240.44 L 471.80,242.70 L 472.85,243.87 L 475.23,246.49 L 476.46,247.84 L 479.16,250.76 L 480.54,252.25 L 483.49,255.40 L 488.14,260.30 L 490.29,262.54 L 494.22,266.66 L 496.12,268.66 L 499.58,272.32 L 501.26,274.10 L 504.29,277.34 L 505.76,278.92 L 508.40,281.80 L 509.67,283.19 L 511.94,285.75 L 513.03,286.99 L 514.97,289.27 L 515.91,290.38 L 517.55,292.43 L 518.33,293.43 L 519.71,295.29 L 521.03,297.12 L 523.00,300.41 L 523.90,302.02 L 525.24,305.16 L 525.85,306.75 L 526.82,310.11 L 528.14,315.79 L 528.55,317.71 L 529.13,321.04 L 529.38,322.66 L 529.68,325.76 L 529.80,327.33 L 529.86,330.68 L 529.72,336.50 L 529.61,339.05 L 529.15,343.61 L 528.88,345.79 L 528.08,349.66 L 527.63,351.50 L 526.46,354.72 L 525.82,356.25 L 524.25,358.86 L 523.41,360.09 L 521.40,362.15 L 520.34,363.11 L 517.87,364.64 L 516.57,365.35 L 513.61,366.42 L 508.57,367.54 L 506.94,367.79 L 503.58,367.70 L 501.87,367.57 L 498.26,366.69 L 496.42,366.15 L 492.44,364.44 L 485.93,360.90 L 484.82,360.23 L 482.74,359.00 L 481.73,358.41 L 480.00,357.44 L 479.20,357.00 L 478.01,356.39 L 477.06,356.00 L 476.84,356.00 L 476.42,356.44 L 476.22,356.74 L 475.84,357.76 L 475.65,358.35 L 475.31,359.95 L 475.14,360.82 L 474.84,362.99 L 474.69,364.14 L 474.43,366.88 L 474.31,368.31 L 474.08,371.60 L 473.98,373.31 L 473.80,377.14 L 473.58,383.50 L 473.49,386.73 L 473.19,392.60 L 473.01,395.45 L 472.51,400.70 L 472.23,403.26 L 471.48,408.07 L 471.06,410.44 L 470.01,415.03 L 469.44,417.31 L 468.04,421.85 L 467.29,424.14 L 465.48,428.85 L 464.53,431.24 L 462.28,436.30 L 458.35,444.50 L 455.36,450.50 L 460.68,455.54 L 461.29,456.11 L 462.30,457.10 L 462.78,457.57 L 463.56,458.39 L 464.29,459.17 L 465.16,460.47 L 465.52,461.11 L 465.85,462.45 L 466.00,464.97 L 466.00,466.27 L 465.48,469.06 L 465.15,470.45 L 464.09,473.14 L 463.52,474.43 L 462.10,476.63 L 461.74,477.13 L 460.97,477.96 L 459.78,478.93 L 459.46,479.13 L 458.46,479.57 L 457.91,479.80 L 456.55,480.26 L 452.00,481.47 L 446.50,482.58 L 444.65,489.54 L 444.15,491.45 L 442.65,495.39 L 442.26,496.31 L 441.49,497.89 L 440.41,499.68 L 439.94,500.30 L 438.80,501.44 L 438.19,501.99 L 436.78,502.97 L 436.03,503.45 L 434.33,504.29 L 433.44,504.69 L 431.44,505.38 L 430.40,505.71 L 428.09,506.27 L 426.89,506.53 L 424.24,506.96 L 422.87,507.15 L 419.89,507.45 L 415.00,507.75 L 413.60,507.81 L 411.27,507.92 L 410.17,507.97 L 408.31,508.11 L 407.43,508.18 L 405.91,508.37 L 405.17,508.48 L 403.83,508.76 L 402.51,509.08 L 399.81,510.14 L 399.07,510.46 L 397.41,511.24 L 394.46,512.68 L 392.55,513.62 L 389.18,515.12 L 387.56,515.81 L 384.68,516.80 L 383.29,517.23 L 380.77,517.68 L 379.54,517.84 L 377.25,517.75 L 376.12,517.63 L 373.93,516.99 L 372.83,516.59 L 370.61,515.37 L 369.49,514.69 L 367.11,512.88 L 363.23,509.51 L 356.35,503.13 L 347.92,505.59 L 346.76,505.93 L 343.94,506.67 L 342.48,507.04 L 339.33,507.79 L 337.75,508.16 L 334.66,508.82 L 330.50,509.62 L 329.80,509.74 L 328.09,509.97 L 327.19,510.09 L 325.12,510.30 L 324.04,510.41 L 321.65,510.60 L 320.41,510.70 L 317.75,510.88 L 315.04,511.05 L 309.02,511.33 L 305.95,511.46 L 299.52,511.64 L 296.29,511.72 L 289.86,511.80 L 286.68,511.83 L 280.65,511.79 L 277.72,511.76 L 272.49,511.60 L 271.26,511.55 L 269.00,511.43 L 266.00,511.21 L 255.50,510.27 L 249.15,517.15 L 248.09,518.31 L 246.12,520.32 L 245.16,521.28 L 243.38,522.91 L 242.50,523.69 L 240.84,524.97 L 240.02,525.58 L 238.43,526.55 L 237.64,527.00 L 236.06,527.68 L 235.27,528.00 L 233.66,528.43 L 228.41,528.92 L 226.79,528.90 L 223.36,528.56 L 222.55,528.46 L 221.13,528.21 L 220.47,528.08 L 219.50,527.80 L 219.09,527.66 L 218.02,527.09 L 217.45,526.77 L 216.20,525.93 L 212.46,522.88 L 211.89,522.33 L 210.90,521.44 L 210.42,521.02 L 209.52,520.37 L 208.64,519.77 L 206.77,519.26 L 206.26,519.18 L 205.11,519.18 L 204.50,519.21 L 203.07,519.39 L 202.32,519.51 L 200.52,519.87 L 197.31,520.60 L 195.19,521.10 L 190.60,521.63 L 188.29,521.82 L 183.71,521.75 L 181.48,521.64 L 177.42,521.00 L 176.46,520.80 L 174.73,520.31 L 172.48,519.41 L 171.18,518.77 L 169.08,517.25 L 168.11,516.45 L 166.63,514.55 L 165.96,513.55 L 165.04,511.21 L 164.23,507.09 L 164.10,505.70 L 163.56,503.25 L 163.42,502.71 L 163.10,501.88 L 162.62,501.13 L 162.47,501.00 L 161.60,500.64 L 161.08,500.45 L 159.63,499.99 L 158.85,499.76 L 157.00,499.27 L 154.00,498.55 L 152.99,498.32 L 151.24,497.90 L 150.41,497.70 L 148.99,497.29 L 147.64,496.89 L 145.72,496.03 L 144.86,495.57 L 143.62,494.44 L 142.12,492.24 L 141.72,491.48 L 141.47,489.68 L 141.43,488.72 L 141.94,486.41 L 142.28,485.19 L 143.57,482.28 L 143.94,481.52 L 144.84,479.85 L 146.41,477.14 L 146.91,476.33 L 147.81,474.82 L 148.23,474.10 L 148.95,472.86 L 149.27,472.29 L 149.72,471.48 L 150.00,470.87 L 150.00,470.82 L 149.45,470.15 L 149.09,469.73 L 147.95,468.47 L 147.31,467.77 L 145.72,466.07 L 143.01,463.22 L 141.45,461.59 L 138.52,458.17 L 137.09,456.43 L 134.44,452.77 L 133.15,450.92 L 130.77,447.06 L 129.62,445.11 L 127.53,441.05 L 126.52,438.99 L 124.71,434.75 L 123.85,432.61 L 122.35,428.19 L 121.63,425.96 L 120.43,421.39 L 118.98,414.37 L 118.70,412.76 L 118.17,409.79 L 117.92,408.37 L 117.47,405.99 L 117.26,404.90 L 116.93,403.37 L 116.86,403.05 L 116.76,402.62 L 116.65,402.32 L 116.63,402.29 L 116.23,402.30 L 115.98,402.31 L 115.16,402.39 L 114.70,402.43 L 113.50,402.56 L 112.86,402.63 L 111.33,402.81 L 109.73,403.00 L 105.75,403.52 L 99.00,404.44 L 96.77,404.76 L 93.00,405.26 L 91.23,405.49 L 88.29,405.82 L 86.91,405.97 L 84.68,406.12 L 83.65,406.17 L 82.02,406.13 L 81.28,406.09 L 80.15,405.86 L 79.64,405.73 L 78.90,405.30 L 78.56,405.06 L 78.10,404.43 L 77.59,403.25 L 77.55,403.13 L 77.47,402.49 L 77.42,402.10 L 77.33,400.98 L 77.29,400.37 L 77.19,398.82 L 77.15,398.00 L 77.05,396.10 L 77.01,395.10 L 76.91,392.90 L 76.87,391.76 L 76.78,389.31 L 76.54,381.35 L 76.49,379.24 L 76.39,375.58 L 76.33,373.84 L 76.22,370.87 L 76.16,369.46 L 76.02,367.06 L 75.95,365.92 L 75.78,364.00 L 75.69,363.09 L 75.48,361.54 L 75.37,360.80 L 75.10,359.52 L 74.07,356.19 L 73.80,355.50 L 73.17,353.59 L 72.85,352.58 L 72.19,350.24 L 70.44,342.98 L 70.08,341.23 L 69.62,338.40 L 69.43,337.06 L 69.29,334.57 L 69.25,333.31 L 69.41,330.54 L 69.47,329.79 L 69.64,328.14 L 69.97,325.34 L 70.33,322.45 L 71.30,316.92 L 71.83,314.20 L 73.11,309.07 L 73.78,306.56 L 75.35,301.89 L 78.01,295.50 L 78.42,294.65 L 79.50,292.66 L 80.09,291.63 L 81.49,289.35 L 82.22,288.18 L 83.87,285.69 L 84.72,284.42 L 86.58,281.78 L 88.47,279.11 L 92.64,273.69 L 99.01,266.00 L 100.58,264.21 L 103.49,260.53 L 104.15,259.67 L 105.21,258.18 L 106.25,256.50 L 106.36,256.29 L 106.60,255.60 L 106.73,255.21 L 107.02,254.19 L 107.31,253.10 L 107.97,250.12 L 108.31,248.54 L 108.99,244.87 L 109.96,239.00 L 110.53,235.17 L 111.72,228.04 L 112.32,224.55 L 113.59,218.01 L 114.23,214.81 L 115.61,208.74 L 116.32,205.75 L 117.84,200.02 L 118.63,197.18 L 120.34,191.65 L 121.22,188.91 L 123.16,183.46 L 124.15,180.74 L 126.34,175.24 L 129.96,166.81 L 130.90,164.70 L 132.85,160.68 L 133.84,158.70 L 135.94,154.88 L 138.07,151.10 L 142.97,143.87 L 144.26,142.07 L 147.06,138.46 L 148.50,136.66 L 151.62,132.99 L 153.23,131.14 L 156.74,127.35 L 162.47,121.44 L 165.50,118.40 L 171.42,112.89 L 174.37,110.23 L 180.19,105.43 L 183.09,103.12 L 188.93,98.96 L 191.86,96.96 L 197.83,93.39 L 200.85,91.66 L 207.07,88.60 L 210.22,87.12 L 216.82,84.49 L 220.17,83.23 L 227.26,80.98 L 238.56,77.95 L 243.87,76.68 L 253.94,74.63 L 258.90,73.69 L 268.35,72.29 L 273.01,71.68 L 281.96,70.94 L 286.38,70.65 L 294.94,70.57 M 158.72,477.00 L 158.18,477.43 L 157.62,478.10 L 157.28,478.58 L 155.75,480.80 L 154.96,482.08 L 153.42,484.67 L 152.90,485.69 L 152.44,486.63 L 152.32,486.95 L 152.16,487.49 L 152.22,487.55 L 152.87,487.86 L 153.71,488.15 L 154.29,488.33 L 155.54,488.71 L 156.27,488.91 L 157.79,489.33 L 158.60,489.53 L 162.66,490.61 L 164.89,491.28 L 165.80,491.61 L 167.49,492.29 L 168.16,492.66 L 169.41,493.44 L 169.90,493.90 L 170.80,494.88 L 171.15,495.47 L 171.80,496.73 L 172.06,497.50 L 172.55,499.13 L 172.77,500.12 L 173.20,502.22 L 173.43,503.47 L 174.07,506.48 L 174.52,507.96 L 174.79,508.51 L 175.36,509.47 L 175.72,509.82 L 176.50,510.45 L 177.00,510.71 L 178.52,511.27 L 179.75,511.56 L 180.47,511.66 L 183.58,511.95 L 185.47,511.92 L 189.44,511.75 L 191.66,511.49 L 196.24,510.86 L 198.68,510.38 L 202.34,509.72 L 204.48,509.43 L 205.43,509.35 L 207.24,509.25 L 208.05,509.27 L 209.60,509.38 L 210.29,509.51 L 211.64,509.84 L 212.25,510.09 L 213.46,510.64 L 214.03,511.01 L 216.24,512.74 L 217.37,513.99 L 220.85,517.05 L 222.08,517.88 L 222.66,518.19 L 223.76,518.74 L 224.21,518.87 L 226.14,519.43 L 226.79,519.59 L 227.95,519.83 L 228.41,519.84 L 229.28,519.77 L 229.79,519.62 L 230.88,519.24 L 231.68,518.94 L 233.03,518.26 L 234.07,517.61 L 234.63,517.20 L 236.93,515.41 L 238.03,514.41 L 240.11,512.39 L 240.83,511.52 L 241.48,510.68 L 241.69,510.34 L 242.00,509.70 L 242.00,509.49 L 241.27,508.93 L 240.12,508.46 L 239.28,508.20 L 237.45,507.68 L 236.34,507.42 L 234.02,506.90 L 232.75,506.66 L 224.14,504.82 L 218.30,503.35 L 215.36,502.51 L 209.47,500.75 L 206.54,499.78 L 200.69,497.76 L 197.81,496.66 L 192.08,494.42 L 189.29,493.23 L 183.78,490.79 L 181.13,489.52 L 175.92,486.92 L 173.46,485.58 L 168.63,482.86 L 166.39,481.46 L 163.57,479.73 L 161.88,478.72 L 161.18,478.31 L 159.91,477.58 L 159.48,477.35 L 158.79,477.00 M 444.78,460.39 L 441.52,462.93 L 439.09,464.71 L 437.77,465.62 L 432.24,469.34 L 429.24,471.19 L 423.11,474.87 L 420.03,476.57 L 413.88,479.86 L 411.00,481.23 L 406.68,483.23 L 403.35,484.72 L 401.52,485.52 L 393.84,488.82 L 389.86,490.47 L 385.89,492.11 L 383.98,492.88 L 380.20,494.40 L 378.46,495.08 L 375.09,496.39 L 373.62,496.94 L 370.84,497.96 L 369.75,498.34 L 368.37,499.12 L 368.07,499.79 L 368.25,500.25 L 368.85,501.26 L 369.50,501.95 L 370.21,502.66 L 370.65,503.07 L 371.61,503.93 L 372.18,504.42 L 374.71,506.36 L 375.91,507.00 L 377.07,507.56 L 377.58,507.73 L 378.55,508.00 L 378.93,508.00 L 380.31,507.79 L 381.53,507.45 L 382.27,507.21 L 385.47,506.02 L 387.27,505.23 L 390.91,503.54 L 392.59,502.65 L 394.23,501.76 L 394.96,501.33 L 396.34,500.47 L 396.89,500.08 L 398.76,499.09 L 400.36,498.63 L 401.50,498.46 L 402.71,498.31 L 403.43,498.25 L 404.95,498.13 L 405.85,498.08 L 407.75,497.98 L 408.86,497.94 L 411.19,497.87 L 412.54,497.83 L 418.54,497.61 L 421.89,497.39 L 423.28,497.23 L 425.88,496.86 L 426.93,496.60 L 428.89,496.02 L 429.68,495.63 L 431.13,494.77 L 431.71,494.22 L 432.77,493.03 L 433.20,492.29 L 433.99,490.71 L 434.33,489.75 L 434.98,487.71 L 435.30,486.50 L 437.02,480.87 L 437.62,479.26 L 437.90,478.62 L 438.42,477.49 L 438.63,477.17 L 440.49,475.28 L 442.22,474.10 L 443.22,473.62 L 445.27,472.73 L 446.30,472.45 L 448.35,472.00 L 449.25,472.00 L 451.55,471.53 L 453.21,470.84 L 453.83,470.40 L 455.54,468.43 L 455.92,466.90 L 455.74,466.06 L 455.14,464.34 L 454.48,463.44 L 452.92,461.62 L 451.78,460.70 L 448.06,457.70 M 288.80,80.61 L 283.46,80.85 L 280.73,81.07 L 275.23,81.56 L 272.40,81.90 L 266.71,82.64 L 263.78,83.10 L 257.86,84.09 L 254.82,84.67 L 248.66,85.90 L 245.49,86.61 L 239.07,88.08 L 235.75,88.91 L 226.99,91.45 L 221.22,93.48 L 218.38,94.66 L 212.71,97.13 L 209.91,98.52 L 204.36,101.43 L 201.62,103.04 L 196.19,106.38 L 193.52,108.20 L 188.21,111.96 L 185.61,114.00 L 180.44,118.17 L 177.91,120.42 L 172.89,125.01 L 170.45,127.45 L 165.45,132.55 L 162.44,135.71 L 161.09,137.21 L 158.46,140.15 L 157.27,141.57 L 154.96,144.37 L 153.90,145.75 L 149.90,151.23 L 148.12,154.08 L 144.67,159.92 L 142.97,163.20 L 135.68,178.79 L 131.56,189.29 L 129.82,194.73 L 128.13,200.22 L 127.36,203.04 L 125.86,208.75 L 125.18,211.69 L 123.85,217.66 L 123.25,220.77 L 122.07,227.06 L 121.54,230.35 L 120.61,236.04 L 120.06,239.46 L 119.81,240.99 L 119.32,243.94 L 119.10,245.26 L 118.66,247.79 L 118.46,248.92 L 118.05,251.09 L 117.85,252.06 L 117.46,253.92 L 117.27,254.74 L 116.47,257.80 L 116.03,259.04 L 115.10,261.37 L 114.54,262.40 L 113.33,264.40 L 112.58,265.41 L 110.96,267.47 L 109.95,268.66 L 107.78,271.18 L 106.43,272.74 L 99.32,281.53 L 94.96,287.43 L 93.07,290.25 L 91.23,293.03 L 90.41,294.36 L 88.82,296.97 L 88.14,298.19 L 86.85,300.57 L 86.32,301.65 L 85.36,303.73 L 85.02,304.65 L 83.16,310.17 L 82.11,313.91 L 81.68,315.78 L 80.89,319.53 L 80.60,321.39 L 80.08,325.10 L 79.93,326.92 L 79.68,330.53 L 79.66,332.28 L 79.69,335.73 L 79.81,337.38 L 80.12,340.63 L 80.38,342.15 L 80.98,345.13 L 81.39,346.50 L 83.78,353.21 L 85.76,357.70 L 86.91,359.92 L 89.31,364.32 L 90.64,366.46 L 93.38,370.66 L 94.84,372.65 L 97.83,376.53 L 99.39,378.31 L 102.54,381.76 L 104.14,383.27 L 107.37,386.16 L 108.98,387.36 L 112.19,389.57 L 113.77,390.38 L 115.57,391.18 L 116.63,391.49 L 117.16,391.54 L 118.25,391.56 L 118.87,391.47 L 120.17,391.22 L 120.98,391.01 L 123.09,390.33 L 124.05,389.83 L 124.37,389.50 L 124.91,388.76 L 125.09,388.23 L 125.41,387.05 L 125.56,386.22 L 127.18,377.39 L 128.32,371.76 L 128.89,369.25 L 129.45,366.80 L 129.72,365.68 L 130.25,363.52 L 130.51,362.57 L 131.00,360.76 L 131.23,360.01 L 131.67,358.63 L 131.87,358.11 L 133.73,353.94 L 135.25,351.14 L 136.11,349.76 L 137.92,347.02 L 138.91,345.70 L 140.93,343.11 L 142.00,341.89 L 144.17,339.52 L 145.28,338.45 L 147.53,336.38 L 148.65,335.49 L 150.90,333.82 L 151.99,333.16 L 154.17,331.96 L 155.20,331.56 L 158.80,330.43 L 160.68,330.15 L 161.42,330.26 L 162.76,330.63 L 163.29,331.07 L 164.25,332.12 L 164.64,332.90 L 165.39,335.19 L 165.29,336.46 L 164.90,337.02 L 163.87,338.13 L 162.96,338.70 L 161.98,339.27 L 161.38,339.57 L 160.11,340.19 L 159.37,340.52 L 157.28,341.53 L 156.06,342.21 L 155.58,342.52 L 154.70,343.13 L 154.42,343.39 L 154.00,343.86 L 154.00,344.01 L 154.51,344.65 L 155.27,344.74 L 155.75,344.59 L 157.69,344.02 L 159.37,343.56 L 160.39,343.29 L 162.55,342.71 L 163.81,342.39 L 166.44,341.71 L 167.94,341.33 L 171.03,340.55 L 172.75,340.12 L 176.30,339.24 L 178.24,338.76 L 182.22,337.78 L 184.37,337.26 L 188.78,336.18 L 191.14,335.61 L 195.95,334.45 L 198.51,333.84 L 203.72,332.59 L 206.47,331.93 L 212.07,330.60 L 215.00,329.90 L 220.97,328.49 L 224.08,327.75 L 230.40,326.26 L 233.69,325.49 L 240.36,323.92 L 243.81,323.11 L 250.81,321.47 L 254.42,320.63 L 261.73,318.93 L 265.50,318.05 L 267.61,317.56 L 269.44,317.13 L 270.54,316.87 L 272.86,316.33 L 274.16,316.02 L 276.87,315.39 L 278.35,315.04 L 284.52,313.59 L 287.86,312.81 L 294.63,311.22 L 298.00,310.43 L 306.82,308.41 L 312.01,307.28 L 314.27,306.83 L 318.58,305.99 L 320.43,305.67 L 323.93,305.12 L 325.40,304.94 L 328.14,304.66 L 329.25,304.62 L 331.30,304.61 L 332.08,304.70 L 333.49,304.94 L 333.97,305.16 L 334.80,305.66 L 335.02,306.00 L 335.55,307.36 L 335.81,308.62 L 335.90,309.41 L 336.04,311.08 L 336.07,312.05 L 336.11,314.08 L 336.09,315.20 L 335.90,319.97 L 335.67,322.66 L 335.13,328.20 L 334.75,331.09 L 333.92,336.91 L 333.42,339.77 L 332.36,345.40 L 331.77,347.99 L 331.16,350.53 L 330.85,351.71 L 330.22,354.02 L 329.89,355.06 L 329.23,357.06 L 328.89,357.93 L 328.22,359.58 L 327.88,360.26 L 325.84,363.74 L 324.13,366.28 L 323.14,367.61 L 318.85,373.06 L 316.48,375.69 L 314.10,378.27 L 312.91,379.47 L 310.56,381.78 L 309.44,382.79 L 307.25,384.70 L 306.26,385.45 L 304.35,386.80 L 303.55,387.22 L 301.95,388.19 L 301.14,388.81 L 301.00,389.01 L 299.54,390.16 L 297.89,391.03 L 296.78,391.50 L 294.38,392.47 L 292.96,392.97 L 289.98,393.97 L 288.32,394.47 L 284.91,395.47 L 283.11,395.95 L 279.44,396.89 L 277.56,397.32 L 269.99,398.94 L 266.43,399.47 L 262.52,400.00 L 259.59,400.35 L 257.99,400.52 L 254.71,400.85 L 252.96,401.01 L 249.39,401.33 L 247.53,401.48 L 239.89,402.07 L 235.92,402.32 L 227.96,402.80 L 224.05,403.00 L 216.35,403.34 L 212.80,403.46 L 209.31,403.56 L 207.67,403.60 L 204.49,403.66 L 203.03,403.67 L 200.22,403.68 L 198.98,403.66 L 196.62,403.62 L 195.63,403.58 L 193.80,403.48 L 193.10,403.41 L 191.86,403.25 L 191.48,403.15 L 186.61,401.25 L 183.37,399.42 L 181.74,398.22 L 178.48,395.62 L 176.83,394.02 L 173.52,390.62 L 171.83,388.61 L 169.10,385.47 L 167.51,383.79 L 166.83,383.16 L 165.53,382.03 L 164.98,381.66 L 163.94,381.06 L 163.50,380.97 L 162.69,380.90 L 162.36,381.06 L 161.73,381.52 L 161.49,381.95 L 161.03,382.92 L 160.85,383.60 L 160.53,385.08 L 160.40,386.01 L 159.98,388.51 L 159.66,389.71 L 159.45,390.12 L 158.99,390.82 L 158.70,391.04 L 158.04,391.39 L 157.62,391.48 L 155.53,391.87 L 153.88,392.15 L 152.96,392.30 L 149.08,392.86 L 147.08,393.12 L 143.14,393.59 L 141.49,393.75 L 139.92,393.89 L 139.28,393.93 L 138.10,394.00 L 137.70,394.00 L 135.90,394.18 L 134.77,394.50 L 134.21,394.78 L 133.08,395.41 L 132.48,395.87 L 131.24,396.86 L 130.55,397.51 L 126.83,401.03 L 128.52,411.26 L 129.42,415.86 L 130.18,419.16 L 130.60,420.80 L 131.48,424.04 L 131.92,425.50 L 132.81,428.27 L 133.22,429.35 L 134.97,433.44 L 136.35,436.26 L 137.13,437.69 L 140.48,443.48 L 142.37,446.26 L 146.28,451.72 L 148.30,454.11 L 150.32,456.43 L 151.32,457.46 L 153.31,459.44 L 154.27,460.27 L 165.04,468.64 L 172.87,473.81 L 177.09,476.19 L 185.72,480.80 L 190.31,482.88 L 199.65,486.90 L 204.57,488.67 L 214.54,492.06 L 219.74,493.51 L 230.26,496.25 L 235.70,497.36 L 246.69,499.41 L 252.33,500.17 L 263.70,501.51 L 269.51,501.90 L 277.81,502.40 L 281.75,502.55 L 289.50,502.77 L 293.19,502.78 L 300.45,502.72 L 303.91,502.59 L 310.73,502.24 L 313.99,501.96 L 320.42,501.33 L 323.51,500.90 L 329.61,499.97 L 332.55,499.39 L 338.36,498.16 L 341.19,497.43 L 346.77,495.90 L 349.50,495.01 L 358.65,491.99 L 364.44,490.01 L 367.20,489.03 L 372.64,487.07 L 375.24,486.10 L 380.37,484.15 L 382.84,483.18 L 392.45,479.26 L 396.98,477.24 L 405.89,473.15 L 410.21,470.99 L 418.41,466.68 L 423.38,463.83 L 425.64,462.41 L 430.01,459.58 L 431.98,458.15 L 435.78,455.28 L 437.48,453.83 L 440.74,450.90 L 442.19,449.40 L 444.96,446.38 L 446.17,444.82 L 448.49,441.67 L 449.49,440.04 L 451.39,436.73 L 452.20,435.00 L 455.49,427.83 L 457.31,423.61 L 458.05,421.70 L 459.44,417.96 L 460.00,416.17 L 461.02,412.63 L 461.41,410.83 L 462.13,407.18 L 462.40,405.22 L 462.87,401.18 L 463.04,398.92 L 463.34,394.20 L 463.45,391.49 L 463.55,388.71 L 463.59,387.22 L 463.67,384.15 L 463.71,382.50 L 463.77,378.01 L 463.78,374.58 L 463.77,372.66 L 463.74,368.71 L 463.72,366.57 L 463.65,362.17 L 463.61,359.84 L 463.52,355.09 L 463.46,352.60 L 463.34,347.56 L 463.27,344.96 L 462.96,334.38 L 462.78,328.96 L 462.39,318.10 L 462.17,312.78 L 461.71,302.27 L 461.47,297.36 L 461.22,292.51 L 461.10,290.22 L 460.84,285.71 L 460.72,283.62 L 460.46,279.53 L 460.33,277.67 L 460.07,274.08 L 459.94,272.50 L 458.03,253.56 L 456.45,241.36 L 455.51,235.52 L 453.54,224.00 L 452.41,218.52 L 450.07,207.78 L 448.77,202.73 L 446.09,192.86 L 444.64,188.28 L 443.16,183.77 L 442.39,181.61 L 440.84,177.35 L 440.03,175.33 L 438.41,171.34 L 437.57,169.46 L 435.88,165.76 L 435.01,164.02 L 433.25,160.61 L 432.35,159.03 L 430.53,155.93 L 429.59,154.50 L 423.10,145.19 L 418.60,139.36 L 416.24,136.62 L 411.46,131.26 L 408.94,128.74 L 403.82,123.79 L 401.12,121.46 L 395.61,116.89 L 392.69,114.73 L 386.74,110.49 L 383.58,108.47 L 377.14,104.51 L 373.71,102.62 L 366.72,98.89 L 363.00,97.10 L 355.57,93.70 L 350.67,91.62 L 348.23,90.69 L 338.55,87.20 L 333.72,85.85 L 324.06,83.40 L 319.17,82.57 L 314.26,81.80 L 311.79,81.51 L 306.81,80.99 L 304.29,80.83 L 299.22,80.57 L 296.64,80.53 L 291.45,80.52 M 327.96,310.58 L 327.50,310.63 L 326.48,310.76 L 325.86,310.85 L 324.53,311.06 L 323.76,311.20 L 320.46,311.81 L 318.51,312.21 L 314.47,313.07 L 312.30,313.57 L 305.69,315.08 L 301.35,316.07 L 299.38,316.52 L 295.60,317.38 L 294.08,317.73 L 292.63,318.05 L 292.03,318.19 L 290.91,318.43 L 290.50,318.53 L 288.37,319.00 L 286.54,319.41 L 285.45,319.66 L 283.15,320.19 L 281.84,320.49 L 279.12,321.11 L 277.63,321.45 L 274.57,322.15 L 272.92,322.53 L 269.57,323.30 L 267.81,323.71 L 260.55,325.38 L 256.73,326.27 L 249.01,328.06 L 245.15,328.95 L 237.48,330.73 L 233.84,331.58 L 226.72,333.25 L 223.53,333.99 L 220.43,334.72 L 219.00,335.06 L 216.23,335.71 L 215.00,336.00 L 207.08,337.96 L 201.33,339.46 L 198.45,340.25 L 192.75,341.82 L 190.16,342.57 L 187.63,343.31 L 186.47,343.66 L 184.23,344.34 L 183.25,344.66 L 168.99,349.17 L 169.07,361.73 L 169.11,365.24 L 169.15,367.26 L 169.18,368.13 L 169.25,369.78 L 169.30,370.48 L 169.41,371.80 L 169.47,372.36 L 169.79,374.35 L 170.03,375.07 L 170.56,376.36 L 170.92,376.89 L 171.83,378.25 L 172.59,379.38 L 173.01,380.01 L 174.76,382.66 L 175.55,383.85 L 178.71,387.85 L 181.22,390.41 L 182.59,391.55 L 185.37,393.73 L 186.75,394.58 L 189.49,396.13 L 190.74,396.57 L 191.93,396.95 L 192.62,397.11 L 194.05,397.40 L 194.87,397.51 L 196.58,397.71 L 197.54,397.77 L 199.55,397.87 L 200.68,397.89 L 203.02,397.91 L 204.33,397.88 L 207.04,397.80 L 208.55,397.73 L 211.65,397.56 L 213.37,397.44 L 216.90,397.19 L 218.84,397.02 L 221.51,396.81 L 223.53,396.64 L 224.63,396.56 L 229.27,396.20 L 231.78,396.01 L 236.86,395.63 L 239.37,395.45 L 244.30,395.10 L 246.50,394.94 L 252.93,394.46 L 256.95,394.11 L 258.85,393.92 L 262.55,393.52 L 264.30,393.30 L 267.71,392.86 L 269.32,392.61 L 275.48,391.56 L 278.23,390.92 L 283.50,389.56 L 285.87,388.74 L 290.46,387.00 L 292.56,385.96 L 296.67,383.78 L 298.61,382.49 L 302.43,379.78 L 304.30,378.21 L 308.05,374.91 L 309.96,373.01 L 313.62,369.24 L 315.77,366.86 L 316.70,365.71 L 318.49,363.44 L 319.26,362.31 L 320.74,360.04 L 321.38,358.89 L 322.60,356.55 L 323.12,355.33 L 324.13,352.83 L 324.57,351.50 L 325.41,348.75 L 325.79,347.26 L 326.52,344.18 L 326.86,342.49 L 327.73,337.60 L 328.25,334.16 L 328.47,332.42 L 329.27,325.41 L 329.50,322.25 L 329.70,319.19 L 329.75,317.84 L 329.81,315.27 L 329.78,314.23 L 329.70,312.35 L 329.59,311.73 L 329.35,310.71 L 329.16,310.60 L 328.62,310.54 M 86.56,380.35 L 86.37,380.77 L 86.30,381.11 L 86.17,381.87 L 86.12,382.36 L 86.05,383.39 L 86.04,383.99 L 86.05,386.56 L 86.15,387.99 L 86.42,390.91 L 86.65,392.32 L 87.29,396.15 L 92.39,395.47 L 96.24,394.77 L 97.24,394.50 L 97.60,394.38 L 98.21,394.13 L 98.33,394.02 L 98.14,393.25 L 97.59,392.29 L 97.15,391.65 L 96.17,390.28 L 95.57,389.51 L 94.32,387.91 L 93.65,387.09 L 92.27,385.45 L 91.59,384.68 L 90.24,383.17 L 89.63,382.54 L 88.46,381.35 L 87.99,380.94 L 87.15,380.26 L 86.91,380.17 M 141.47,360.39 L 141.35,360.51 L 141.12,360.82 L 140.99,361.05 L 140.45,362.56 L 139.99,364.23 L 139.73,365.31 L 139.19,367.61 L 138.91,368.90 L 138.35,371.58 L 138.07,372.96 L 137.53,375.75 L 137.28,377.10 L 136.81,379.75 L 136.62,380.93 L 136.28,383.18 L 136.17,384.06 L 136.00,385.65 L 136.00,386.11 L 136.02,387.29 L 136.10,387.69 L 136.32,388.36 L 136.57,388.56 L 137.18,388.86 L 137.70,388.92 L 138.88,388.99 L 139.75,388.98 L 141.84,388.94 L 142.96,388.85 L 143.40,388.74 L 144.19,388.47 L 144.47,388.23 L 144.96,387.68 L 145.11,387.26 L 145.34,386.34 L 145.37,385.70 L 145.38,384.30 L 145.31,383.39 L 145.13,381.42 L 144.98,380.19 L 144.64,377.55 L 144.42,375.95 L 143.71,370.74 L 143.31,367.89 L 143.14,366.75 L 142.82,364.65 L 142.68,363.86 L 142.42,362.42 L 142.31,361.92 L 142.09,361.06 L 141.98,360.81 L 141.78,360.42 L 141.67,360.38 M 149.50,355.00 L 148.20,355.11 L 147.62,355.34 L 147.44,355.57 L 147.16,356.12 L 147.09,356.56 L 147.01,357.55 L 147.01,358.25 L 147.10,360.73 L 147.24,362.75 L 147.34,363.90 L 147.84,368.77 L 148.16,371.31 L 148.49,373.83 L 148.67,375.03 L 149.02,377.38 L 149.20,378.43 L 149.55,380.44 L 149.72,381.26 L 150.05,382.75 L 150.20,383.25 L 150.63,384.59 L 150.85,385.08 L 151.30,385.95 L 151.57,386.23 L 152.12,386.71 L 152.46,386.83 L 153.20,387.00 L 153.66,387.00 L 154.91,386.87 L 155.45,386.59 L 155.61,386.30 L 155.87,385.59 L 155.92,385.01 L 155.99,383.70 L 155.99,382.75 L 155.44,378.84 L 154.60,376.40 L 154.00,375.50 L 153.01,373.64 L 152.55,372.24 L 152.40,371.36 L 152.16,369.46 L 152.10,368.22 L 152.04,366.92 L 152.03,366.18 L 152.01,364.63 L 152.01,363.75 L 152.00,360.89 L 151.98,359.34 L 151.96,358.73 L 151.91,357.60 L 151.86,357.17 L 151.76,356.40 L 151.68,356.13 L 151.29,355.29 L 150.94,355.15 L 150.12,355.00 M 159.44,352.92 L 158.67,352.98 L 158.36,353.09 L 157.79,353.37 L 157.56,353.61 L 157.15,354.14 L 156.99,354.51 L 156.70,355.32 L 156.60,355.85 L 156.41,356.97 L 156.35,357.67 L 156.23,359.14 L 156.19,360.01 L 156.15,365.55 L 156.22,367.26 L 156.28,367.98 L 156.40,369.30 L 156.49,369.75 L 156.75,371.08 L 156.92,371.53 L 157.29,372.29 L 157.60,372.51 L 158.31,372.85 L 158.86,372.92 L 160.13,373.00 L 165.00,373.00 L 165.00,363.52 L 164.99,360.47 L 164.97,358.81 L 164.95,358.15 L 164.90,356.92 L 164.85,356.44 L 164.75,355.57 L 164.67,355.25 L 164.29,354.22 L 163.95,353.96 L 163.17,353.58 L 162.58,353.43 L 160.83,353.05 L 159.84,352.92 M 470.35,258.00 L 469.57,258.21 L 469.25,258.60 L 469.18,258.99 L 469.09,259.89 L 469.12,260.59 L 469.24,262.16 L 469.36,263.25 L 469.50,264.70 L 469.60,265.97 L 469.66,266.75 L 469.78,268.38 L 469.85,269.33 L 469.98,271.30 L 470.05,272.39 L 470.34,277.06 L 470.50,279.76 L 470.82,285.37 L 470.98,288.42 L 471.31,294.68 L 471.48,297.95 L 471.81,304.57 L 471.97,307.92 L 472.28,314.62 L 472.43,317.91 L 472.70,324.41 L 472.83,327.49 L 473.50,344.47 L 477.03,345.04 L 478.98,345.64 L 480.71,346.38 L 481.71,346.87 L 485.97,349.12 L 488.03,350.45 L 494.19,354.28 L 496.01,355.34 L 496.75,355.75 L 498.09,356.48 L 498.50,356.66 L 501.14,357.57 L 502.63,357.74 L 505.71,357.88 L 507.24,357.69 L 510.26,357.14 L 511.57,356.62 L 512.84,356.06 L 513.40,355.73 L 514.45,355.02 L 514.88,354.62 L 517.35,351.46 L 517.98,350.23 L 518.24,349.54 L 518.73,348.09 L 518.93,347.27 L 519.29,345.56 L 519.43,344.59 L 519.67,342.55 L 519.76,341.40 L 519.90,338.99 L 519.94,337.62 L 520.00,334.78 L 520.00,333.18 L 519.86,327.81 L 519.63,324.40 L 519.44,322.78 L 519.01,319.59 L 518.73,318.08 L 518.11,315.11 L 517.73,313.71 L 516.91,310.94 L 516.43,309.63 L 515.41,307.05 L 514.83,305.83 L 513.61,303.44 L 512.93,302.30 L 511.50,300.08 L 510.71,299.02 L 509.05,296.92 L 507.71,295.30 L 506.93,294.40 L 505.31,292.54 L 504.41,291.54 L 502.57,289.49 L 501.58,288.41 L 497.47,283.97 L 495.27,281.67 L 490.82,277.03 L 488.60,274.78 L 484.21,270.35 L 482.18,268.35 L 480.17,266.40 L 479.24,265.51 L 477.42,263.78 L 476.59,263.01 L 474.99,261.55 L 474.30,260.93 L 472.98,259.79 L 472.45,259.35 L 471.46,258.58 L 471.10,258.35 L 470.50,258.00 M 315.50,198.57 L 324.48,198.80 L 330.09,199.15 L 332.71,199.43 L 337.82,200.04 L 340.19,200.45 L 344.82,201.33 L 346.95,201.87 L 351.09,203.02 L 352.98,203.69 L 356.65,205.11 L 358.31,205.92 L 361.52,207.61 L 362.95,208.55 L 365.70,210.52 L 366.90,211.60 L 372.18,216.83 L 374.96,220.14 L 375.99,221.73 L 377.83,224.90 L 378.43,226.47 L 379.41,229.61 L 379.59,231.19 L 379.68,235.88 L 379.18,238.70 L 378.58,240.10 L 377.92,241.51 L 377.49,242.23 L 376.57,243.70 L 376.01,244.48 L 374.81,246.06 L 374.09,246.92 L 372.58,248.67 L 371.71,249.63 L 368.25,252.94 L 365.67,254.99 L 364.23,255.94 L 361.26,257.77 L 359.63,258.61 L 356.26,260.24 L 354.42,260.98 L 350.64,262.41 L 348.58,263.05 L 344.37,264.28 L 342.09,264.83 L 337.43,265.87 L 334.93,266.33 L 329.81,267.19 L 327.08,267.55 L 325.34,267.77 L 324.38,267.86 L 322.37,268.05 L 321.28,268.13 L 316.70,268.43 L 314.16,268.54 L 308.94,268.73 L 306.20,268.79 L 300.68,268.87 L 297.91,268.86 L 292.41,268.83 L 289.79,268.78 L 284.64,268.64 L 282.32,268.52 L 277.86,268.27 L 276.00,268.10 L 274.22,267.93 L 273.44,267.83 L 271.95,267.63 L 271.34,267.52 L 262.38,265.52 L 257.02,263.91 L 254.66,262.98 L 250.14,261.03 L 248.19,259.92 L 244.51,257.62 L 242.99,256.34 L 241.55,254.87 L 240.55,253.61 L 240.04,252.88 L 238.02,249.70 L 237.12,247.96 L 235.45,244.45 L 234.89,242.86 L 234.39,241.32 L 234.24,240.65 L 234.00,239.37 L 234.00,238.86 L 234.21,237.61 L 234.56,236.57 L 234.83,235.97 L 235.44,234.70 L 235.83,233.99 L 236.67,232.52 L 237.18,231.72 L 239.40,228.36 L 240.79,226.51 L 243.73,222.70 L 245.43,220.71 L 250.65,215.52 L 254.66,212.40 L 256.93,211.01 L 261.62,208.35 L 264.22,207.19 L 269.60,204.99 L 272.53,204.06 L 278.57,202.32 L 281.83,201.63 L 288.52,200.36 L 292.10,199.90 L 299.43,199.10 L 303.33,198.88 L 311.29,198.55 M 361.55,230.91 L 358.10,230.94 L 356.16,230.98 L 352.15,231.08 L 349.96,231.15 L 345.49,231.31 L 343.11,231.41 L 338.27,231.63 L 335.75,231.75 L 330.66,232.02 L 328.04,232.17 L 317.46,232.81 L 312.18,233.18 L 301.68,233.96 L 296.74,234.38 L 291.86,234.81 L 289.56,235.03 L 285.03,235.47 L 282.94,235.69 L 278.87,236.14 L 277.03,236.37 L 273.52,236.82 L 272.00,237.05 L 260.12,238.79 L 256.31,239.34 L 254.67,239.57 L 253.08,239.80 L 252.38,239.89 L 251.05,240.08 L 250.50,240.15 L 246.86,240.65 L 244.93,240.92 L 244.18,241.04 L 242.82,241.28 L 242.33,241.40 L 241.47,241.64 L 241.19,241.78 L 240.73,242.08 L 240.62,242.26 L 240.48,242.65 L 240.50,242.89 L 240.81,244.02 L 241.11,244.88 L 242.68,247.92 L 244.23,249.97 L 245.19,250.95 L 247.21,252.87 L 248.35,253.72 L 250.68,255.33 L 251.91,255.95 L 254.23,257.00 L 256.07,257.72 L 257.11,258.07 L 261.53,259.50 L 263.98,260.16 L 268.99,261.41 L 271.46,261.91 L 276.33,262.81 L 278.47,263.06 L 279.55,263.16 L 280.25,263.21 L 281.74,263.30 L 282.62,263.33 L 284.45,263.40 L 285.47,263.43 L 287.58,263.47 L 288.71,263.49 L 293.42,263.53 L 295.92,263.51 L 300.98,263.45 L 303.45,263.39 L 315.45,262.82 L 322.84,262.23 L 326.23,261.82 L 332.83,260.92 L 335.84,260.36 L 341.67,259.15 L 344.31,258.43 L 349.41,256.91 L 351.69,256.03 L 356.07,254.19 L 358.00,253.14 L 361.69,250.97 L 363.29,249.75 L 366.32,247.24 L 367.60,245.86 L 370.02,243.05 L 371.37,241.29 L 371.90,240.48 L 372.87,238.89 L 373.22,238.17 L 373.82,236.77 L 373.98,236.15 L 374.21,234.95 L 374.18,234.43 L 374.03,233.45 L 373.81,233.05 L 373.27,232.30 L 372.85,232.02 L 371.93,231.52 L 371.32,231.37 L 369.28,231.09 L 367.27,230.97 L 365.97,230.94 L 363.19,230.90 M 314.32,203.33 L 312.54,203.41 L 308.87,203.61 L 306.91,203.77 L 302.93,204.11 L 300.89,204.33 L 292.65,205.31 L 288.79,205.94 L 285.01,206.58 L 283.27,206.93 L 279.93,207.63 L 278.49,208.00 L 273.05,209.62 L 269.59,210.88 L 267.95,211.60 L 264.71,213.11 L 263.18,213.95 L 260.16,215.70 L 258.73,216.68 L 255.92,218.68 L 254.60,219.78 L 252.01,222.03 L 250.79,223.26 L 248.40,225.77 L 247.28,227.13 L 245.09,229.90 L 244.07,231.38 L 240.72,236.26 L 247.61,235.55 L 253.70,234.78 L 255.66,234.49 L 256.51,234.34 L 258.10,234.06 L 258.68,233.93 L 262.56,233.16 L 265.41,232.66 L 266.97,232.41 L 270.18,231.93 L 271.91,231.69 L 275.46,231.22 L 277.36,231.00 L 281.25,230.55 L 283.31,230.33 L 287.52,229.90 L 289.74,229.70 L 294.27,229.29 L 296.64,229.10 L 301.47,228.71 L 304.00,228.53 L 324.77,227.18 L 331.54,226.81 L 334.79,226.64 L 341.16,226.33 L 344.12,226.20 L 349.87,225.97 L 352.43,225.89 L 357.33,225.74 L 359.39,225.70 L 361.37,225.67 L 362.25,225.67 L 363.94,225.66 L 364.66,225.67 L 366.01,225.69 L 366.55,225.71 L 367.55,225.76 L 367.90,225.80 L 372.31,226.24 L 370.24,223.37 L 366.96,219.42 L 364.50,216.97 L 363.17,215.87 L 360.45,213.76 L 359.04,212.87 L 356.20,211.20 L 354.78,210.57 L 351.89,209.46 L 349.62,208.71 L 348.35,208.34 L 345.72,207.61 L 344.30,207.26 L 341.41,206.56 L 339.89,206.24 L 333.68,205.00 L 330.55,204.52 L 324.34,203.66 L 321.50,203.42 L 317.50,203.28 M 214.40,182.12 L 216.16,182.34 L 216.96,182.53 L 218.51,182.98 L 219.27,183.31 L 220.80,184.04 L 221.64,184.53 L 223.96,186.12 L 225.35,187.32 L 225.97,187.97 L 228.23,190.75 L 229.06,192.32 L 230.50,195.55 L 230.92,197.26 L 231.54,200.74 L 231.54,202.50 L 231.33,206.02 L 230.92,207.74 L 229.89,211.11 L 229.06,212.68 L 227.21,215.71 L 225.97,217.02 L 224.68,218.30 L 223.96,218.88 L 222.47,219.99 L 221.64,220.47 L 219.07,221.82 L 217.78,222.29 L 215.21,223.08 L 213.94,223.28 L 211.42,223.56 L 210.18,223.52 L 207.74,223.32 L 206.56,223.06 L 204.23,222.44 L 203.13,221.99 L 200.96,220.99 L 199.95,220.36 L 197.98,219.03 L 197.08,218.25 L 195.34,216.63 L 194.58,215.73 L 193.12,213.86 L 192.50,212.85 L 191.36,210.79 L 190.91,209.70 L 190.12,207.49 L 189.87,206.34 L 189.46,204.02 L 189.42,202.84 L 189.45,200.46 L 189.63,199.27 L 190.13,196.88 L 190.56,195.69 L 191.56,193.33 L 192.27,192.18 L 193.81,189.89 L 194.80,188.80 L 198.21,185.63 L 200.58,184.07 L 201.89,183.53 L 204.60,182.61 L 206.14,182.36 L 209.39,182.00 L 211.28,182.00 M 390.12,174.61 L 392.80,175.04 L 394.13,175.45 L 396.80,176.39 L 398.11,177.06 L 400.54,178.55 L 401.99,179.70 L 402.62,180.34 L 403.84,181.67 L 404.37,182.39 L 405.36,183.86 L 405.77,184.65 L 407.19,187.89 L 407.56,189.63 L 408.09,193.16 L 408.01,194.95 L 407.65,198.52 L 407.14,200.24 L 405.90,203.63 L 404.95,205.18 L 403.95,206.69 L 403.37,207.40 L 402.15,208.77 L 401.46,209.40 L 400.03,210.61 L 399.24,211.14 L 397.59,212.14 L 396.69,212.56 L 393.50,213.92 L 392.05,214.30 L 389.22,214.87 L 387.85,214.86 L 385.12,214.63 L 383.69,214.21 L 380.76,213.19 L 379.13,212.38 L 376.56,210.94 L 375.05,209.91 L 374.38,209.35 L 373.10,208.20 L 372.55,207.58 L 371.51,206.31 L 371.08,205.61 L 370.25,204.19 L 369.92,203.41 L 369.31,201.81 L 369.08,200.94 L 368.66,199.16 L 368.52,198.19 L 368.29,196.19 L 368.24,195.11 L 368.17,191.62 L 368.27,189.78 L 368.42,189.00 L 368.78,187.52 L 369.08,186.80 L 369.75,185.35 L 370.23,184.53 L 372.60,181.22 L 374.44,179.32 L 375.47,178.54 L 377.60,177.07 L 378.75,176.51 L 381.10,175.50 L 382.34,175.17 L 384.86,174.62 L 386.16,174.52 L 388.79,174.46 Z" fill="rgba(1,0,0,1)"/>
<path d="M 169.08,358.36 L 169.16,361.66 L 169.23,363.51 L 169.28,364.29 L 169.37,365.74 L 169.43,366.33 L 169.55,367.41 L 169.63,367.83 L 169.80,368.60 L 169.90,368.89 L 170.11,369.39 L 170.24,369.55 L 170.82,370.00 L 171.21,370.00 L 171.58,370.15 L 171.97,370.39 L 172.24,370.57 L 173.48,371.48 L 174.31,372.14 L 176.09,373.58 L 177.11,374.45 L 179.23,376.28 L 180.35,377.28 L 183.90,380.44 L 185.85,382.16 L 186.65,382.85 L 188.14,384.13 L 188.75,384.63 L 189.90,385.54 L 190.38,385.89 L 192.08,387.00 L 192.82,387.31 L 194.31,387.80 L 195.26,388.03 L 197.14,388.50 L 198.00,388.62 L 198.88,388.73 L 199.41,388.76 L 200.57,388.79 L 201.33,388.77 L 202.99,388.72 L 204.09,388.66 L 206.50,388.52 L 208.06,388.42 L 209.68,388.31 L 210.60,388.24 L 212.51,388.11 L 213.58,388.03 L 215.79,387.87 L 217.03,387.79 L 219.58,387.60 L 221.00,387.50 L 229.75,386.78 L 235.65,386.21 L 238.42,385.91 L 241.13,385.60 L 242.41,385.45 L 244.88,385.14 L 246.00,384.99 L 248.15,384.69 L 249.07,384.55 L 250.81,384.27 L 251.50,384.14 L 257.80,383.02 L 262.62,382.23 L 265.23,381.82 L 276.09,380.17 L 281.42,379.42 L 286.68,378.70 L 289.12,378.38 L 293.82,377.78 L 295.84,377.55 L 297.80,377.32 L 298.67,377.23 L 300.35,377.05 L 301.07,376.99 L 302.42,376.87 L 302.95,376.83 L 303.93,376.78 L 304.27,376.78 L 305.88,376.46 L 306.78,376.02 L 304.30,378.21 L 302.43,379.78 L 298.61,382.49 L 296.67,383.78 L 292.56,385.96 L 290.46,387.00 L 285.87,388.74 L 283.50,389.56 L 278.23,390.92 L 275.48,391.56 L 269.32,392.61 L 267.71,392.86 L 264.30,393.30 L 262.55,393.52 L 258.85,393.92 L 256.95,394.11 L 252.93,394.46 L 246.50,394.94 L 244.30,395.10 L 239.37,395.45 L 236.86,395.63 L 231.78,396.01 L 229.27,396.20 L 224.63,396.56 L 223.53,396.64 L 221.51,396.81 L 218.84,397.02 L 216.90,397.19 L 213.37,397.44 L 211.65,397.56 L 208.55,397.73 L 207.04,397.80 L 204.33,397.88 L 203.02,397.91 L 200.68,397.89 L 199.55,397.87 L 197.54,397.77 L 196.58,397.71 L 194.87,397.51 L 194.05,397.40 L 192.62,397.11 L 191.93,396.95 L 190.74,396.57 L 189.49,396.13 L 186.75,394.58 L 185.37,393.73 L 182.59,391.55 L 181.22,390.41 L 178.71,387.85 L 175.55,383.85 L 174.76,382.66 L 173.01,380.01 L 172.59,379.38 L 171.83,378.25 L 170.92,376.89 L 170.56,376.36 L 170.03,375.07 L 169.79,374.35 L 169.47,372.36 L 169.41,371.80 L 169.30,370.48 L 169.25,369.78 L 169.18,368.13 L 169.15,367.26 L 169.11,365.24 L 169.07,361.73 L 169.04,356.49 M 98.33,394.02 L 98.21,394.13 L 97.60,394.38 L 97.24,394.50 L 96.24,394.77 L 92.39,395.47 L 92.34,395.48 L 96.23,394.77 L 97.24,394.50 L 97.60,394.37 L 98.22,394.12 L 98.33,394.02 M 87.15,380.26 L 87.99,380.94 L 88.46,381.35 L 89.63,382.54 L 90.24,383.17 L 91.59,384.68 L 92.27,385.45 L 93.65,387.09 L 94.32,387.91 L 95.24,389.08 L 94.82,388.66 L 94.18,388.05 L 93.95,387.86 L 93.56,387.55 L 93.47,387.53 L 93.39,387.58 L 93.47,387.75 L 93.57,388.32 L 93.37,388.61 L 93.13,388.71 L 92.57,388.88 L 92.14,388.93 L 91.19,389.00 L 90.56,389.00 L 88.56,388.92 L 87.72,388.72 L 87.48,388.48 L 87.11,387.88 L 87.02,387.36 L 86.91,386.15 L 86.88,385.25 L 86.80,383.94 L 86.71,383.32 L 86.66,383.15 L 86.55,382.91 L 86.48,382.95 L 86.35,383.12 L 86.29,383.38 L 86.15,384.54 L 86.13,385.65 L 86.14,386.31 L 86.30,389.22 L 86.48,390.71 L 86.78,393.09 L 86.65,392.32 L 86.42,390.91 L 86.15,387.99 L 86.05,386.56 L 86.04,383.99 L 86.05,383.39 L 86.12,382.36 L 86.17,381.87 L 86.30,381.11 L 86.37,380.77 L 86.56,380.35 L 86.91,380.17 M 144.19,388.47 L 143.40,388.74 L 142.96,388.85 L 141.84,388.94 L 139.75,388.98 L 138.88,388.99 L 138.88,388.99 L 139.75,388.98 L 141.64,388.93 L 142.68,388.84 L 143.11,388.75 L 143.89,388.56 L 144.20,388.41 L 144.39,388.30 M 136.66,388.60 L 136.57,388.56 L 136.57,388.55 M 136.50,388.50 L 136.32,388.36 L 136.32,388.36 M 136.09,387.65 L 136.23,388.08 L 136.10,387.69 L 136.02,387.29 L 136.02,387.25 M 136.00,386.11 L 136.00,386.00 L 136.01,386.72 M 141.78,360.42 L 141.98,360.81 L 142.09,361.06 L 142.31,361.92 L 142.42,362.42 L 142.68,363.86 L 142.82,364.65 L 143.14,366.75 L 143.31,367.89 L 143.71,370.74 L 144.42,375.95 L 144.64,377.55 L 144.98,380.19 L 145.02,380.52 L 145.00,380.41 L 144.77,379.45 L 144.65,379.20 L 144.40,378.85 L 144.26,378.89 L 143.97,379.09 L 143.80,379.39 L 142.74,380.53 L 141.85,381.00 L 141.45,381.00 L 140.43,381.29 L 140.00,381.72 L 140.00,382.00 L 139.41,382.71 L 138.55,383.00 L 138.00,383.00 L 137.03,383.14 L 136.57,383.40 L 136.42,383.62 L 136.16,384.16 L 136.15,384.19 L 136.17,384.06 L 136.28,383.18 L 136.62,380.93 L 136.81,379.75 L 137.28,377.10 L 137.53,375.75 L 138.07,372.96 L 138.35,371.58 L 138.91,368.90 L 139.19,367.61 L 139.73,365.31 L 139.99,364.23 L 140.45,362.56 L 140.99,361.05 L 141.12,360.82 L 141.35,360.51 L 141.47,360.39 L 141.67,360.38 M 160.83,353.05 L 162.58,353.43 L 163.17,353.58 L 163.95,353.96 L 164.29,354.22 L 164.67,355.25 L 164.75,355.57 L 164.85,356.44 L 164.90,356.92 L 164.95,358.15 L 164.97,358.81 L 164.99,360.47 L 165.00,363.52 L 165.00,373.00 L 160.13,373.00 L 158.86,372.92 L 158.31,372.85 L 157.60,372.51 L 157.29,372.29 L 156.92,371.53 L 156.75,371.08 L 156.49,369.75 L 156.40,369.30 L 156.28,367.98 L 156.22,367.26 L 156.15,365.55 L 156.19,360.01 L 156.23,359.14 L 156.35,357.67 L 156.41,356.97 L 156.60,355.85 L 156.70,355.32 L 156.99,354.51 L 157.15,354.14 L 157.56,353.61 L 157.79,353.37 L 158.36,353.09 L 158.67,352.98 L 159.44,352.92 L 159.84,352.92 M 157.46,354.49 L 157.31,354.95 L 157.19,355.47 L 157.14,355.84 L 157.07,356.63 L 157.05,357.15 L 157.01,358.26 L 157.01,358.96 L 157.00,360.44 L 157.00,361.34 L 157.00,362.98 L 157.01,363.66 L 157.03,364.93 L 157.05,365.44 L 157.10,366.38 L 157.14,366.73 L 157.23,367.38 L 157.30,367.62 L 157.62,368.31 L 157.90,368.39 L 158.53,368.41 L 159.00,368.29 L 160.21,367.74 L 160.73,367.07 L 160.89,366.43 L 161.04,365.72 L 161.10,365.27 L 161.20,364.28 L 161.24,363.66 L 161.30,362.33 L 161.33,361.52 L 161.38,359.79 L 161.40,358.75 L 161.38,356.52 L 161.24,355.51 L 161.09,355.19 L 160.72,354.65 L 160.42,354.49 L 159.74,354.25 L 159.25,354.18 L 157.99,354.16 M 319.26,362.31 L 318.90,362.83 L 319.96,361.24 M 323.12,355.33 L 322.60,356.55 L 321.38,358.89 L 321.18,359.25 L 321.97,357.68 L 323.97,353.23 M 326.52,344.18 L 325.79,347.26 L 325.41,348.75 L 324.57,351.50 L 324.13,352.83 L 323.99,353.17 L 324.79,350.69 L 325.55,348.14 L 325.90,346.78 L 326.56,343.99 M 201.32,339.47 L 198.44,340.25 L 192.73,341.83 L 190.13,342.58 L 187.59,343.33 L 186.42,343.68 L 184.18,344.36 L 183.19,344.67 L 168.99,349.18 L 168.99,349.17 L 183.25,344.66 L 184.23,344.34 L 186.47,343.66 L 187.63,343.31 L 190.16,342.57 L 192.75,341.82 L 198.45,340.25 L 201.33,339.46 L 207.08,337.96 L 215.00,336.00 L 207.08,337.96 Z" fill="rgba(148,138,146,1)"/>
<path d="M 329.16,310.60 L 329.35,310.71 L 329.59,311.73 L 329.70,312.35 L 329.78,314.23 L 329.81,315.27 L 329.75,317.84 L 329.70,319.19 L 329.50,322.25 L 329.27,325.41 L 328.47,332.42 L 328.25,334.16 L 327.73,337.60 L 326.86,342.49 L 326.56,343.99 L 325.90,346.78 L 325.55,348.14 L 324.79,350.69 L 323.99,353.19 L 321.97,357.68 L 320.87,359.87 L 318.09,364.05 L 317.35,365.09 L 315.67,367.19 L 312.87,370.40 L 311.75,371.62 L 309.94,373.45 L 309.09,374.28 L 307.69,375.41 L 307.03,375.90 L 305.88,376.46 L 304.27,376.78 L 303.93,376.78 L 302.95,376.83 L 302.42,376.87 L 301.07,376.99 L 300.35,377.05 L 298.67,377.23 L 297.80,377.32 L 295.84,377.55 L 293.82,377.78 L 289.12,378.38 L 286.68,378.70 L 281.42,379.42 L 276.09,380.17 L 265.23,381.82 L 262.62,382.23 L 257.80,383.02 L 251.50,384.14 L 250.81,384.27 L 249.07,384.55 L 248.15,384.69 L 246.00,384.99 L 244.88,385.14 L 242.41,385.45 L 241.13,385.60 L 238.42,385.91 L 235.65,386.21 L 229.75,386.78 L 221.00,387.50 L 219.58,387.60 L 217.03,387.79 L 215.79,387.87 L 213.58,388.03 L 212.51,388.11 L 210.60,388.24 L 209.68,388.31 L 208.06,388.42 L 206.50,388.52 L 204.09,388.66 L 202.99,388.72 L 201.33,388.77 L 200.57,388.79 L 199.41,388.76 L 198.88,388.73 L 198.00,388.62 L 197.14,388.50 L 195.26,388.03 L 194.31,387.80 L 192.82,387.31 L 192.08,387.00 L 190.38,385.89 L 189.90,385.54 L 188.75,384.63 L 188.14,384.13 L 186.65,382.85 L 185.85,382.16 L 183.90,380.44 L 180.35,377.28 L 179.23,376.28 L 177.11,374.45 L 176.09,373.58 L 174.31,372.14 L 173.48,371.48 L 172.24,370.57 L 171.97,370.39 L 171.58,370.15 L 171.21,370.00 L 170.82,370.00 L 170.24,369.55 L 170.11,369.39 L 169.90,368.89 L 169.80,368.60 L 169.63,367.83 L 169.55,367.41 L 169.43,366.33 L 169.37,365.74 L 169.28,364.29 L 169.23,363.51 L 169.16,361.66 L 169.08,358.36 L 168.88,349.21 L 183.19,344.67 L 184.18,344.36 L 186.42,343.68 L 187.59,343.33 L 190.13,342.58 L 192.73,341.83 L 198.44,340.25 L 201.32,339.47 L 207.08,337.96 L 215.00,336.00 L 216.23,335.71 L 219.00,335.06 L 220.43,334.72 L 223.53,333.99 L 226.72,333.25 L 233.84,331.58 L 237.48,330.73 L 245.15,328.95 L 249.01,328.06 L 256.73,326.27 L 260.55,325.38 L 267.81,323.71 L 269.57,323.30 L 272.92,322.53 L 274.57,322.15 L 277.63,321.45 L 279.12,321.11 L 281.84,320.49 L 283.15,320.19 L 285.45,319.66 L 286.54,319.41 L 288.37,319.00 L 290.50,318.53 L 290.91,318.43 L 292.03,318.19 L 292.63,318.05 L 294.08,317.73 L 295.60,317.38 L 299.38,316.52 L 301.35,316.07 L 305.69,315.08 L 312.30,313.57 L 314.47,313.07 L 318.51,312.21 L 320.46,311.81 L 323.76,311.20 L 324.53,311.06 L 325.86,310.85 L 326.48,310.76 L 327.50,310.63 L 327.96,310.58 L 328.62,310.54 M 159.25,354.18 L 159.74,354.25 L 160.42,354.49 L 160.72,354.65 L 161.09,355.19 L 161.24,355.51 L 161.38,356.52 L 161.40,358.75 L 161.38,359.79 L 161.33,361.52 L 161.30,362.33 L 161.24,363.66 L 161.20,364.28 L 161.10,365.27 L 161.04,365.72 L 160.89,366.43 L 160.73,367.07 L 160.21,367.74 L 159.00,368.29 L 158.53,368.41 L 157.90,368.39 L 157.62,368.31 L 157.30,367.62 L 157.23,367.38 L 157.14,366.73 L 157.10,366.38 L 157.05,365.44 L 157.03,364.93 L 157.01,363.66 L 157.00,362.98 L 157.00,361.34 L 157.00,360.44 L 157.01,358.96 L 157.01,358.26 L 157.05,357.15 L 157.07,356.63 L 157.14,355.84 L 157.19,355.47 L 157.31,354.95 L 157.46,354.49 L 157.99,354.16 Z" fill="rgba(190,193,189,1)"/>
<path d="M 159.48,477.35 L 159.91,477.58 L 161.18,478.31 L 161.88,478.72 L 163.57,479.73 L 166.39,481.46 L 168.63,482.86 L 173.46,485.58 L 175.92,486.92 L 181.13,489.52 L 183.78,490.79 L 189.29,493.23 L 192.08,494.42 L 197.81,496.66 L 200.69,497.76 L 206.54,499.78 L 209.47,500.75 L 215.36,502.51 L 218.30,503.35 L 224.14,504.82 L 232.75,506.66 L 234.02,506.90 L 236.34,507.42 L 237.45,507.68 L 239.28,508.20 L 240.12,508.46 L 241.27,508.93 L 242.00,509.49 L 242.00,509.70 L 241.69,510.34 L 241.48,510.68 L 240.83,511.52 L 240.11,512.39 L 238.03,514.41 L 236.93,515.41 L 234.63,517.20 L 234.07,517.61 L 233.03,518.26 L 231.68,518.94 L 230.88,519.24 L 229.79,519.62 L 229.28,519.77 L 228.41,519.84 L 227.95,519.83 L 226.79,519.59 L 226.14,519.43 L 224.21,518.87 L 223.76,518.74 L 222.66,518.19 L 222.08,517.88 L 220.85,517.05 L 217.37,513.99 L 216.24,512.74 L 214.03,511.01 L 213.46,510.64 L 212.25,510.09 L 211.64,509.84 L 210.29,509.51 L 209.60,509.38 L 208.05,509.27 L 207.24,509.25 L 205.43,509.35 L 204.48,509.43 L 202.34,509.72 L 198.68,510.38 L 196.24,510.86 L 191.66,511.49 L 189.44,511.75 L 185.47,511.92 L 183.58,511.95 L 180.47,511.66 L 179.75,511.56 L 178.52,511.27 L 177.00,510.71 L 176.50,510.45 L 175.72,509.82 L 175.36,509.47 L 174.79,508.51 L 174.52,507.96 L 174.07,506.48 L 173.43,503.47 L 173.20,502.22 L 172.77,500.12 L 172.55,499.13 L 172.06,497.50 L 171.80,496.73 L 171.15,495.47 L 170.80,494.88 L 169.90,493.90 L 169.41,493.44 L 168.16,492.66 L 167.49,492.29 L 165.80,491.61 L 164.89,491.28 L 162.66,490.61 L 158.60,489.53 L 157.79,489.33 L 156.27,488.91 L 155.54,488.71 L 154.29,488.33 L 153.71,488.15 L 152.87,487.86 L 152.22,487.55 L 152.16,487.49 L 152.32,486.95 L 152.44,486.63 L 152.90,485.69 L 153.42,484.67 L 154.96,482.08 L 155.75,480.80 L 157.28,478.58 L 157.62,478.10 L 158.18,477.43 L 158.72,477.00 L 158.79,477.00 M 451.78,460.70 L 452.92,461.62 L 454.48,463.44 L 455.14,464.34 L 455.74,466.06 L 455.92,466.90 L 455.54,468.43 L 453.83,470.40 L 453.21,470.84 L 451.55,471.53 L 449.25,472.00 L 448.35,472.00 L 446.30,472.45 L 445.27,472.73 L 443.22,473.62 L 442.22,474.10 L 440.49,475.28 L 438.63,477.17 L 438.42,477.49 L 437.90,478.62 L 437.62,479.26 L 437.02,480.87 L 435.30,486.50 L 434.98,487.71 L 434.33,489.75 L 433.99,490.71 L 433.20,492.29 L 432.77,493.03 L 431.71,494.22 L 431.13,494.77 L 429.68,495.63 L 428.89,496.02 L 426.93,496.60 L 425.88,496.86 L 423.28,497.23 L 421.89,497.39 L 418.54,497.61 L 412.54,497.83 L 411.19,497.87 L 408.86,497.94 L 407.75,497.98 L 405.85,498.08 L 404.95,498.13 L 403.43,498.25 L 402.71,498.31 L 401.50,498.46 L 400.36,498.63 L 398.76,499.09 L 396.89,500.08 L 396.34,500.47 L 394.96,501.33 L 394.23,501.76 L 392.59,502.65 L 390.91,503.54 L 387.27,505.23 L 385.47,506.02 L 382.27,507.21 L 381.53,507.45 L 380.31,507.79 L 378.93,508.00 L 378.55,508.00 L 377.58,507.73 L 377.07,507.56 L 375.91,507.00 L 374.71,506.36 L 372.18,504.42 L 371.61,503.93 L 370.65,503.07 L 370.21,502.66 L 369.50,501.95 L 368.85,501.26 L 368.25,500.25 L 368.07,499.79 L 368.37,499.12 L 369.75,498.34 L 370.84,497.96 L 373.62,496.94 L 375.09,496.39 L 378.46,495.08 L 380.20,494.40 L 383.98,492.88 L 385.89,492.11 L 389.86,490.47 L 393.84,488.82 L 401.52,485.52 L 403.35,484.72 L 406.68,483.23 L 411.00,481.23 L 413.88,479.86 L 420.03,476.57 L 423.11,474.87 L 429.24,471.19 L 432.24,469.34 L 437.77,465.62 L 439.09,464.71 L 441.52,462.93 L 444.78,460.39 L 448.06,457.70 M 86.66,383.15 L 86.71,383.32 L 86.80,383.94 L 86.88,385.25 L 86.91,386.15 L 87.02,387.36 L 87.11,387.88 L 87.48,388.48 L 87.72,388.72 L 88.56,388.92 L 90.56,389.00 L 91.19,389.00 L 92.14,388.93 L 92.57,388.88 L 93.13,388.71 L 93.37,388.61 L 93.57,388.32 L 93.47,387.75 L 93.39,387.58 L 93.47,387.53 L 93.56,387.55 L 93.95,387.86 L 94.18,388.05 L 94.82,388.66 L 96.00,389.86 L 96.44,390.33 L 97.17,391.23 L 97.50,391.67 L 98.00,392.47 L 98.21,392.84 L 98.41,393.44 L 98.34,394.01 L 98.22,394.12 L 97.60,394.37 L 97.24,394.50 L 96.23,394.77 L 92.33,395.48 L 87.16,396.17 L 86.48,390.71 L 86.30,389.22 L 86.14,386.31 L 86.13,385.65 L 86.15,384.54 L 86.29,383.38 L 86.35,383.12 L 86.48,382.95 L 86.55,382.91 M 144.65,379.20 L 144.77,379.45 L 145.00,380.41 L 145.36,382.58 L 145.45,383.27 L 145.56,384.45 L 145.61,385.00 L 145.59,385.92 L 145.57,386.34 L 145.40,387.04 L 145.30,387.36 L 144.95,387.85 L 144.75,388.08 L 144.20,388.41 L 143.89,388.56 L 143.11,388.75 L 142.68,388.84 L 141.64,388.93 L 139.75,388.98 L 138.87,388.99 L 137.69,388.92 L 137.17,388.86 L 136.56,388.55 L 136.31,388.35 L 136.09,387.65 L 136.02,387.24 L 136.00,386.00 L 136.00,385.42 L 136.09,384.55 L 136.16,384.16 L 136.42,383.62 L 136.57,383.40 L 137.03,383.14 L 138.00,383.00 L 138.55,383.00 L 139.41,382.71 L 140.00,382.00 L 140.00,381.72 L 140.43,381.29 L 141.45,381.00 L 141.85,381.00 L 142.74,380.53 L 143.80,379.39 L 143.97,379.09 L 144.26,378.89 L 144.40,378.85 M 150.94,355.15 L 151.29,355.29 L 151.68,356.13 L 151.76,356.40 L 151.86,357.17 L 151.91,357.60 L 151.96,358.73 L 151.98,359.34 L 152.00,360.89 L 152.01,363.75 L 152.01,364.63 L 152.03,366.18 L 152.04,366.92 L 152.10,368.22 L 152.16,369.46 L 152.40,371.36 L 152.55,372.24 L 153.01,373.64 L 154.00,375.50 L 154.60,376.40 L 155.44,378.84 L 155.99,382.75 L 155.99,383.70 L 155.92,385.01 L 155.87,385.59 L 155.61,386.30 L 155.45,386.59 L 154.91,386.87 L 153.66,387.00 L 153.20,387.00 L 152.46,386.83 L 152.12,386.71 L 151.57,386.23 L 151.30,385.95 L 150.85,385.08 L 150.63,384.59 L 150.20,383.25 L 150.05,382.75 L 149.72,381.26 L 149.55,380.44 L 149.20,378.43 L 149.02,377.38 L 148.67,375.03 L 148.49,373.83 L 148.16,371.31 L 147.84,368.77 L 147.34,363.90 L 147.24,362.75 L 147.10,360.73 L 147.01,358.25 L 147.01,357.55 L 147.09,356.56 L 147.16,356.12 L 147.44,355.57 L 147.62,355.34 L 148.20,355.11 L 149.50,355.00 L 150.12,355.00 M 365.97,230.94 L 367.27,230.97 L 369.28,231.09 L 371.32,231.37 L 371.93,231.52 L 372.85,232.02 L 373.27,232.30 L 373.81,233.05 L 374.03,233.45 L 374.18,234.43 L 374.21,234.95 L 373.98,236.15 L 373.82,236.77 L 373.22,238.17 L 372.87,238.89 L 371.90,240.48 L 371.37,241.29 L 370.02,243.05 L 367.60,245.86 L 366.32,247.24 L 363.29,249.75 L 361.69,250.97 L 358.00,253.14 L 356.07,254.19 L 351.69,256.03 L 349.41,256.91 L 344.31,258.43 L 341.67,259.15 L 335.84,260.36 L 332.83,260.92 L 326.23,261.82 L 322.84,262.23 L 315.45,262.82 L 303.45,263.39 L 300.98,263.45 L 295.92,263.51 L 293.42,263.53 L 288.71,263.49 L 287.58,263.47 L 285.47,263.43 L 284.45,263.40 L 282.62,263.33 L 281.74,263.30 L 280.25,263.21 L 279.55,263.16 L 278.47,263.06 L 276.33,262.81 L 271.46,261.91 L 268.99,261.41 L 263.98,260.16 L 261.53,259.50 L 257.11,258.07 L 256.07,257.72 L 254.23,257.00 L 251.91,255.95 L 250.68,255.33 L 248.35,253.72 L 247.21,252.87 L 245.19,250.95 L 244.23,249.97 L 242.68,247.92 L 241.11,244.88 L 240.81,244.02 L 240.50,242.89 L 240.48,242.65 L 240.62,242.26 L 240.73,242.08 L 241.19,241.78 L 241.47,241.64 L 242.33,241.40 L 242.82,241.28 L 244.18,241.04 L 244.93,240.92 L 246.86,240.65 L 250.50,240.15 L 251.05,240.08 L 252.38,239.89 L 253.08,239.80 L 254.67,239.57 L 256.31,239.34 L 260.12,238.79 L 272.00,237.05 L 273.52,236.82 L 277.03,236.37 L 278.87,236.14 L 282.94,235.69 L 285.03,235.47 L 289.56,235.03 L 291.86,234.81 L 296.74,234.38 L 301.68,233.96 L 312.18,233.18 L 317.46,232.81 L 328.04,232.17 L 330.66,232.02 L 335.75,231.75 L 338.27,231.63 L 343.11,231.41 L 345.49,231.31 L 349.96,231.15 L 352.15,231.08 L 356.16,230.98 L 358.10,230.94 L 361.55,230.91 L 363.19,230.90 M 275.46,231.22 L 271.91,231.69 L 270.18,231.93 L 266.97,232.41 L 265.41,232.66 L 262.73,233.13 L 263.76,232.92 L 267.44,232.30 L 269.49,232.00 L 273.76,231.41 L 276.19,231.13 L 277.34,231.00 M 345.72,207.61 L 348.35,208.34 L 349.62,208.71 L 351.89,209.46 L 354.78,210.57 L 356.20,211.20 L 359.04,212.87 L 360.45,213.76 L 363.17,215.87 L 364.50,216.97 L 366.96,219.42 L 370.24,223.37 L 372.31,226.24 L 367.90,225.80 L 367.55,225.76 L 366.55,225.71 L 366.01,225.69 L 364.66,225.67 L 363.94,225.66 L 362.25,225.67 L 361.37,225.67 L 359.39,225.70 L 357.33,225.74 L 352.43,225.89 L 349.87,225.97 L 344.12,226.20 L 341.16,226.33 L 334.79,226.64 L 331.54,226.81 L 324.77,227.18 L 312.91,227.95 L 316.76,227.68 L 319.29,227.51 L 324.44,227.16 L 327.18,226.98 L 332.79,226.61 L 335.77,226.41 L 339.79,226.06 L 342.06,225.77 L 342.97,225.60 L 344.64,225.25 L 345.22,225.05 L 346.21,224.64 L 346.43,224.42 L 347.40,222.98 L 347.92,221.71 L 348.11,220.98 L 348.71,217.78 L 348.73,216.08 L 348.60,212.69 L 348.26,211.28 L 347.88,209.95 L 347.62,209.41 L 347.04,208.45 L 346.69,208.15 L 345.54,207.61 L 344.96,207.42 M 302.85,204.12 L 300.81,204.34 L 292.58,205.33 L 288.73,205.95 L 284.96,206.59 L 283.23,206.94 L 279.91,207.64 L 279.93,207.63 L 283.27,206.93 L 285.01,206.58 L 288.79,205.94 L 292.65,205.31 L 300.89,204.33 L 302.93,204.11 L 305.46,203.89 M 333.68,205.00 L 334.04,205.07 L 333.25,204.93 M 321.50,203.42 L 324.34,203.66 L 327.94,204.15 L 323.70,203.61 L 321.38,203.42 Z" fill="rgba(205,68,22,1)"/>
<path d="M 321.27,203.41 L 323.70,203.61 L 329.12,204.31 L 331.83,204.69 L 337.03,205.59 L 338.26,205.82 L 340.51,206.29 L 341.59,206.52 L 343.41,206.97 L 344.26,207.20 L 345.54,207.61 L 346.69,208.15 L 347.04,208.45 L 347.62,209.41 L 347.88,209.95 L 348.26,211.28 L 348.60,212.69 L 348.73,216.08 L 348.71,217.78 L 348.11,220.98 L 347.92,221.71 L 347.40,222.98 L 346.43,224.42 L 346.21,224.64 L 345.22,225.05 L 344.64,225.25 L 342.97,225.60 L 342.06,225.77 L 339.79,226.06 L 335.77,226.41 L 332.79,226.61 L 327.18,226.98 L 324.44,227.16 L 319.29,227.51 L 316.76,227.68 L 312.04,228.01 L 309.73,228.18 L 305.41,228.50 L 303.30,228.65 L 299.35,228.96 L 297.42,229.11 L 293.82,229.41 L 292.07,229.56 L 288.79,229.85 L 287.18,229.99 L 284.19,230.27 L 281.27,230.56 L 276.19,231.13 L 273.76,231.41 L 269.49,232.00 L 267.44,232.30 L 263.76,232.92 L 258.68,233.93 L 258.10,234.06 L 256.51,234.34 L 255.66,234.49 L 253.70,234.78 L 247.61,235.55 L 240.72,236.26 L 244.07,231.38 L 245.09,229.90 L 247.28,227.13 L 248.40,225.77 L 250.79,223.26 L 252.01,222.03 L 254.60,219.78 L 255.92,218.68 L 258.73,216.68 L 260.16,215.70 L 263.18,213.95 L 264.71,213.11 L 267.95,211.60 L 269.59,210.88 L 273.05,209.62 L 278.49,208.00 L 279.91,207.64 L 283.23,206.94 L 284.96,206.59 L 288.73,205.95 L 292.58,205.33 L 300.81,204.34 L 302.85,204.12 L 306.82,203.77 L 308.77,203.62 L 312.43,203.41 L 314.20,203.32 L 317.34,203.28 Z" fill="rgba(234,156,11,1)"/>
<path d="M 281.31,502.47 L 289.24,502.65 L 293.12,502.65 L 300.81,502.58 L 304.44,502.46 L 311.54,502.16 L 312.13,502.12 L 310.73,502.24 L 303.91,502.59 L 300.45,502.72 L 293.19,502.78 L 289.50,502.77 L 281.75,502.55 L 277.81,502.40 L 269.51,501.90 L 277.34,502.35 M 458.03,253.56 L 459.94,272.50 L 460.07,274.08 L 460.33,277.67 L 460.46,279.53 L 460.72,283.62 L 460.84,285.71 L 461.10,290.22 L 461.22,292.51 L 461.47,297.36 L 461.71,302.27 L 462.17,312.78 L 462.39,318.10 L 462.78,328.96 L 462.96,334.38 L 463.27,344.96 L 463.34,347.56 L 463.46,352.60 L 463.52,355.09 L 463.61,359.84 L 463.65,362.17 L 463.72,366.57 L 463.74,368.71 L 463.77,372.66 L 463.78,374.58 L 463.77,378.01 L 463.71,382.50 L 463.67,384.15 L 463.59,387.22 L 463.55,388.71 L 463.45,391.49 L 463.34,394.20 L 463.04,398.92 L 462.87,401.18 L 462.40,405.22 L 462.13,407.18 L 461.41,410.83 L 461.02,412.63 L 460.00,416.17 L 459.44,417.96 L 458.05,421.70 L 457.31,423.61 L 455.49,427.83 L 452.20,435.00 L 451.39,436.73 L 449.49,440.04 L 448.49,441.67 L 446.17,444.82 L 444.96,446.38 L 442.19,449.40 L 440.74,450.90 L 437.48,453.83 L 435.78,455.28 L 431.98,458.15 L 430.01,459.58 L 425.64,462.41 L 423.38,463.83 L 418.41,466.68 L 410.21,470.99 L 405.89,473.15 L 396.98,477.24 L 392.45,479.26 L 382.84,483.18 L 380.37,484.15 L 375.24,486.10 L 372.64,487.07 L 367.20,489.03 L 364.44,490.01 L 358.65,491.99 L 349.50,495.01 L 346.77,495.90 L 341.19,497.43 L 338.36,498.16 L 333.45,499.20 L 334.00,499.01 L 334.45,498.78 L 335.24,498.31 L 335.43,498.07 L 335.67,497.57 L 335.57,497.31 L 335.55,496.51 L 335.79,495.87 L 336.02,495.51 L 336.55,494.77 L 336.92,494.37 L 337.73,493.57 L 338.22,493.16 L 340.86,490.82 L 343.04,488.76 L 344.28,487.53 L 346.87,484.97 L 348.25,483.56 L 351.06,480.67 L 352.50,479.16 L 358.26,473.04 L 360.83,470.18 L 363.33,467.38 L 364.42,466.12 L 366.47,463.71 L 367.27,462.71 L 372.19,456.23 L 375.51,451.54 L 377.17,449.04 L 380.49,443.93 L 382.14,441.24 L 385.43,435.78 L 387.05,432.94 L 393.45,421.28 L 396.46,415.17 L 402.35,402.79 L 404.99,396.50 L 405.98,394.20 L 406.75,392.44 L 407.18,391.47 L 409.01,387.40 L 410.02,385.18 L 412.11,380.66 L 413.16,378.42 L 415.25,373.99 L 416.22,372.00 L 419.43,365.34 L 421.29,361.46 L 422.10,359.76 L 423.63,356.53 L 424.28,355.12 L 425.52,352.46 L 426.04,351.30 L 427.02,349.11 L 427.43,348.16 L 428.19,346.35 L 428.51,345.57 L 429.62,342.70 L 430.00,341.50 L 430.81,339.24 L 431.59,337.21 L 432.06,336.03 L 434.14,330.97 L 435.21,328.50 L 437.33,323.58 L 438.58,320.63 L 439.12,319.29 L 440.16,316.71 L 440.61,315.55 L 441.46,313.30 L 441.82,312.28 L 442.50,310.31 L 442.78,309.42 L 443.31,307.68 L 443.52,306.88 L 444.23,303.86 L 444.43,302.50 L 444.89,299.81 L 445.35,297.49 L 445.63,296.18 L 446.86,290.61 L 447.52,288.00 L 448.60,283.33 L 449.40,279.63 L 449.81,277.64 L 450.62,273.62 L 450.99,271.66 L 451.71,267.80 L 451.99,266.09 L 452.73,261.92 L 453.17,259.53 L 453.38,258.50 L 453.78,256.58 L 453.98,255.77 L 454.35,254.26 L 454.54,253.65 L 454.91,252.51 L 455.09,252.06 L 455.46,251.25 L 455.65,250.95 L 456.43,250.01 L 456.87,249.84 L 457.14,249.35 L 457.23,248.68 L 457.24,248.19 L 457.22,247.31 M 327.07,361.69 L 326.03,363.75 L 325.50,364.96 L 325.33,365.44 L 325.05,366.31 L 325.02,366.58 L 325.04,367.00 L 325.18,367.00 L 325.43,367.30 L 325.37,367.77 L 325.24,368.12 L 324.92,368.88 L 324.68,369.34 L 324.15,370.31 L 323.83,370.84 L 322.37,373.10 L 321.51,374.23 L 319.74,376.45 L 318.87,377.33 L 316.58,379.14 L 315.91,379.47 L 315.63,379.53 L 315.14,379.59 L 314.99,379.50 L 313.79,379.39 L 312.82,379.73 L 312.41,380.08 L 311.52,381.20 L 311.64,381.78 L 312.05,382.03 L 312.25,382.45 L 312.16,382.87 L 312.01,383.13 L 311.64,383.71 L 311.36,384.04 L 310.76,384.74 L 310.38,385.13 L 308.66,386.78 L 307.58,387.69 L 305.29,389.57 L 304.03,390.51 L 301.46,392.40 L 300.17,393.27 L 297.59,394.95 L 296.40,395.64 L 294.11,396.91 L 293.16,397.31 L 292.26,397.68 L 291.87,397.79 L 291.15,397.96 L 290.87,397.96 L 289.94,398.10 L 289.10,398.31 L 288.61,398.46 L 286.49,399.15 L 285.45,399.59 L 282.70,400.53 L 280.31,401.21 L 278.89,401.56 L 275.93,402.26 L 274.30,402.61 L 270.95,403.31 L 269.20,403.64 L 262.06,404.92 L 258.65,405.41 L 255.30,405.87 L 253.76,406.04 L 250.78,406.35 L 249.50,406.43 L 235.12,407.16 L 225.31,407.46 L 220.65,407.52 L 216.05,407.56 L 213.88,407.56 L 209.63,407.54 L 207.69,407.50 L 203.92,407.41 L 202.27,407.34 L 199.13,407.19 L 197.84,407.08 L 193.70,406.65 L 191.16,406.27 L 189.99,406.03 L 187.70,405.53 L 186.64,405.23 L 184.59,404.59 L 183.64,404.21 L 180.03,402.56 L 178.46,401.49 L 175.46,399.18 L 174.12,397.74 L 171.58,395.30 L 170.69,394.54 L 170.27,394.21 L 169.48,393.60 L 169.16,393.38 L 167.82,392.59 L 167.14,392.35 L 166.84,392.38 L 166.24,392.54 L 165.89,392.78 L 165.15,393.37 L 164.66,393.83 L 163.17,394.89 L 161.89,395.56 L 161.12,395.87 L 159.51,396.47 L 158.60,396.75 L 156.70,397.28 L 155.67,397.51 L 151.33,398.35 L 148.96,398.60 L 144.12,399.00 L 141.66,399.00 L 138.58,398.96 L 136.85,398.88 L 136.15,398.82 L 134.85,398.68 L 134.35,398.58 L 133.46,398.37 L 133.17,398.23 L 132.68,397.94 L 132.58,397.77 L 132.48,397.39 L 132.57,397.17 L 132.84,396.71 L 133.12,396.44 L 133.75,395.88 L 134.21,395.57 L 135.47,394.46 L 135.58,394.27 L 135.90,394.18 L 137.70,394.00 L 138.10,394.00 L 139.28,393.93 L 139.92,393.89 L 141.49,393.75 L 143.14,393.59 L 147.08,393.12 L 149.08,392.86 L 152.96,392.30 L 153.88,392.15 L 155.53,391.87 L 157.62,391.48 L 158.04,391.39 L 158.70,391.04 L 158.99,390.82 L 159.45,390.12 L 159.66,389.71 L 159.98,388.51 L 160.40,386.01 L 160.53,385.08 L 160.85,383.60 L 161.03,382.92 L 161.49,381.95 L 161.73,381.52 L 162.36,381.06 L 162.69,380.90 L 163.50,380.97 L 163.94,381.06 L 164.98,381.66 L 165.53,382.03 L 166.83,383.16 L 167.51,383.79 L 169.10,385.47 L 171.83,388.61 L 173.52,390.62 L 176.83,394.02 L 178.48,395.62 L 181.74,398.22 L 183.37,399.42 L 186.61,401.25 L 191.48,403.15 L 191.86,403.25 L 193.10,403.41 L 193.80,403.48 L 195.63,403.58 L 196.62,403.62 L 198.98,403.66 L 200.22,403.68 L 203.03,403.67 L 204.49,403.66 L 207.67,403.60 L 209.31,403.56 L 212.80,403.46 L 216.35,403.34 L 224.05,403.00 L 227.96,402.80 L 235.92,402.32 L 239.89,402.07 L 247.53,401.48 L 249.39,401.33 L 252.96,401.01 L 254.71,400.85 L 257.99,400.52 L 259.59,400.35 L 262.52,400.00 L 266.43,399.47 L 269.99,398.94 L 277.56,397.32 L 279.44,396.89 L 283.11,395.95 L 284.91,395.47 L 288.32,394.47 L 289.98,393.97 L 292.96,392.97 L 294.38,392.47 L 296.78,391.50 L 297.89,391.03 L 299.54,390.16 L 301.00,389.01 L 301.14,388.81 L 301.95,388.19 L 303.55,387.22 L 304.35,386.80 L 306.26,385.45 L 307.25,384.70 L 309.44,382.79 L 310.56,381.78 L 312.91,379.47 L 314.10,378.27 L 316.48,375.69 L 318.85,373.06 L 323.14,367.61 L 324.13,366.28 L 325.84,363.74 L 327.46,360.97 M 471.10,258.35 L 471.46,258.58 L 472.45,259.35 L 472.98,259.79 L 474.30,260.93 L 474.99,261.55 L 476.59,263.01 L 477.42,263.78 L 479.24,265.51 L 480.17,266.40 L 482.18,268.35 L 484.21,270.35 L 488.60,274.78 L 490.82,277.03 L 495.27,281.67 L 497.47,283.97 L 501.58,288.41 L 502.57,289.49 L 504.41,291.54 L 505.31,292.54 L 506.93,294.40 L 507.71,295.30 L 509.05,296.92 L 510.71,299.02 L 511.50,300.08 L 512.93,302.30 L 513.61,303.44 L 514.83,305.83 L 515.41,307.05 L 516.43,309.63 L 516.91,310.94 L 517.73,313.71 L 518.11,315.11 L 518.73,318.08 L 519.01,319.59 L 519.44,322.78 L 519.63,324.40 L 519.86,327.81 L 520.00,333.18 L 520.00,334.78 L 519.94,337.62 L 519.90,338.99 L 519.76,341.40 L 519.67,342.55 L 519.43,344.59 L 519.29,345.56 L 518.93,347.27 L 518.73,348.09 L 518.24,349.54 L 517.98,350.23 L 517.35,351.46 L 514.88,354.62 L 514.45,355.02 L 513.40,355.73 L 512.84,356.06 L 511.57,356.62 L 510.26,357.14 L 507.24,357.69 L 505.71,357.88 L 502.63,357.74 L 501.14,357.57 L 498.50,356.66 L 498.09,356.48 L 496.75,355.75 L 496.01,355.34 L 494.19,354.28 L 488.03,350.45 L 485.97,349.12 L 481.71,346.87 L 480.71,346.38 L 478.98,345.64 L 477.03,345.04 L 475.70,344.83 L 475.75,344.78 L 475.98,344.48 L 475.97,344.25 L 475.51,343.15 L 474.87,342.09 L 474.47,341.56 L 473.63,340.48 L 473.33,340.18 L 472.83,327.49 L 472.70,324.41 L 472.43,317.91 L 472.28,314.62 L 471.97,307.92 L 471.81,304.57 L 471.48,297.95 L 471.31,294.68 L 470.98,288.42 L 470.82,285.37 L 470.50,279.76 L 470.34,277.06 L 470.05,272.39 L 469.98,271.30 L 469.85,269.33 L 469.78,268.38 L 469.66,266.75 L 469.60,265.97 L 469.50,264.70 L 469.36,263.25 L 469.24,262.16 L 469.12,260.59 L 469.09,259.89 L 469.18,258.99 L 469.25,258.60 L 469.57,258.21 L 470.35,258.00 L 470.50,258.00 M 334.49,333.36 L 334.18,335.55 L 333.53,339.89 L 333.15,341.98 L 332.36,346.06 L 331.92,347.94 L 330.93,351.63 L 330.46,353.12 L 330.85,351.71 L 331.16,350.53 L 331.77,347.99 L 332.36,345.40 L 333.42,339.77 L 333.92,336.91 L 334.75,331.09 L 334.81,330.69 M 473.67,344.33 L 474.01,344.55 L 473.50,344.47 L 473.49,344.15 M 335.41,307.00 L 335.02,306.00 L 335.38,306.86 M 442.39,181.61 L 443.16,183.77 L 444.64,188.28 L 446.09,192.86 L 448.77,202.73 L 450.07,207.78 L 452.41,218.52 L 453.54,224.00 L 453.59,224.32 L 453.16,222.25 L 451.90,216.34 L 451.22,213.35 L 449.81,207.37 L 449.08,204.46 L 447.60,198.72 L 446.84,196.06 L 444.11,186.88 L 442.26,181.26 M 440.84,177.35 L 442.01,180.58 L 441.31,178.65 L 440.38,176.21 M 430.53,155.93 L 430.78,156.36 L 430.41,155.75 M 403.82,123.79 L 404.35,124.30 L 403.34,123.38 M 366.72,98.89 L 373.71,102.62 L 377.14,104.51 L 383.58,108.47 L 386.74,110.49 L 392.69,114.73 L 395.61,116.89 L 401.12,121.46 L 401.97,122.20 L 400.78,121.20 L 396.38,117.61 L 394.06,115.86 L 389.35,112.42 L 386.89,110.76 L 381.89,107.48 L 379.30,105.91 L 374.04,102.82 L 371.32,101.35 L 365.83,98.47 M 131.24,396.86 L 130.55,397.51 L 131.24,396.86 Z" fill="rgba(252,200,30,1)"/>
<path d="M 269.51,501.90 L 263.70,501.51 L 252.33,500.17 L 246.69,499.41 L 235.70,497.36 L 230.26,496.25 L 219.74,493.51 L 214.54,492.06 L 204.57,488.67 L 199.65,486.90 L 190.31,482.88 L 185.72,480.80 L 177.09,476.19 L 172.87,473.81 L 165.04,468.64 L 154.27,460.27 L 153.31,459.44 L 151.32,457.46 L 150.32,456.43 L 148.30,454.11 L 146.28,451.72 L 142.37,446.26 L 140.48,443.48 L 137.13,437.69 L 136.35,436.26 L 134.97,433.44 L 133.22,429.35 L 132.81,428.27 L 131.92,425.50 L 131.48,424.04 L 130.60,420.80 L 130.18,419.16 L 129.42,415.86 L 128.52,411.26 L 126.83,401.03 L 130.55,397.51 L 131.58,396.55 L 133.50,395.03 L 133.94,394.71 L 134.65,394.28 L 135.36,394.00 L 135.51,394.00 L 135.61,394.12 L 135.62,394.20 L 135.47,394.46 L 134.21,395.57 L 133.75,395.88 L 133.12,396.44 L 132.84,396.71 L 132.57,397.17 L 132.48,397.39 L 132.58,397.77 L 132.68,397.94 L 133.17,398.23 L 133.46,398.37 L 134.35,398.58 L 134.85,398.68 L 136.15,398.82 L 136.85,398.88 L 138.58,398.96 L 141.66,399.00 L 144.12,399.00 L 148.96,398.60 L 151.33,398.35 L 155.67,397.51 L 156.70,397.28 L 158.60,396.75 L 159.51,396.47 L 161.12,395.87 L 161.89,395.56 L 163.17,394.89 L 164.66,393.83 L 165.15,393.37 L 165.89,392.78 L 166.24,392.54 L 166.84,392.38 L 167.14,392.35 L 167.82,392.59 L 169.16,393.38 L 169.48,393.60 L 170.27,394.21 L 170.69,394.54 L 171.58,395.30 L 174.12,397.74 L 175.46,399.18 L 178.46,401.49 L 180.03,402.56 L 183.64,404.21 L 184.59,404.59 L 186.64,405.23 L 187.70,405.53 L 189.99,406.03 L 191.16,406.27 L 193.70,406.65 L 197.84,407.08 L 199.13,407.19 L 202.27,407.34 L 203.92,407.41 L 207.69,407.50 L 209.63,407.54 L 213.88,407.56 L 216.05,407.56 L 220.65,407.52 L 225.31,407.46 L 235.12,407.16 L 249.50,406.43 L 250.78,406.35 L 253.76,406.04 L 255.30,405.87 L 258.65,405.41 L 262.06,404.92 L 269.20,403.64 L 270.95,403.31 L 274.30,402.61 L 275.93,402.26 L 278.89,401.56 L 280.31,401.21 L 282.70,400.53 L 285.45,399.59 L 286.49,399.15 L 288.61,398.46 L 289.10,398.31 L 289.94,398.10 L 290.87,397.96 L 291.15,397.96 L 291.87,397.79 L 292.26,397.68 L 293.16,397.31 L 294.11,396.91 L 296.40,395.64 L 297.59,394.95 L 300.17,393.27 L 301.46,392.40 L 304.03,390.51 L 305.29,389.57 L 307.58,387.69 L 308.66,386.78 L 310.38,385.13 L 310.76,384.74 L 311.36,384.04 L 311.64,383.71 L 312.01,383.13 L 312.16,382.87 L 312.25,382.45 L 312.05,382.03 L 311.64,381.78 L 311.52,381.20 L 312.41,380.08 L 312.82,379.73 L 313.79,379.39 L 314.99,379.50 L 315.14,379.59 L 315.63,379.53 L 315.91,379.47 L 316.58,379.14 L 318.87,377.33 L 319.74,376.45 L 321.51,374.23 L 322.37,373.10 L 323.83,370.84 L 324.15,370.31 L 324.68,369.34 L 324.92,368.88 L 325.24,368.12 L 325.37,367.77 L 325.43,367.30 L 325.18,367.00 L 325.04,367.00 L 325.02,366.58 L 325.05,366.31 L 325.33,365.44 L 325.50,364.96 L 326.03,363.75 L 327.07,361.69 L 327.47,360.95 L 328.34,358.96 L 328.79,357.89 L 329.68,355.45 L 330.12,354.21 L 330.93,351.63 L 331.92,347.94 L 332.36,346.06 L 333.15,341.98 L 333.53,339.89 L 334.18,335.55 L 334.49,333.36 L 335.00,328.98 L 335.24,326.81 L 335.59,322.63 L 335.74,320.58 L 335.90,316.81 L 335.96,315.00 L 335.93,311.88 L 335.89,310.42 L 335.65,308.16 L 335.57,307.66 L 335.38,306.86 L 335.02,306.00 L 334.80,305.66 L 333.97,305.16 L 333.49,304.94 L 332.08,304.70 L 331.30,304.61 L 329.25,304.62 L 328.14,304.66 L 325.40,304.94 L 323.93,305.12 L 320.43,305.67 L 318.58,305.99 L 314.27,306.83 L 312.01,307.28 L 306.82,308.41 L 298.00,310.43 L 294.63,311.22 L 287.86,312.81 L 284.52,313.59 L 278.35,315.04 L 276.87,315.39 L 274.16,316.02 L 272.86,316.33 L 270.54,316.87 L 269.44,317.13 L 267.61,317.56 L 265.50,318.05 L 261.73,318.93 L 254.42,320.63 L 250.81,321.47 L 243.81,323.11 L 240.36,323.92 L 233.69,325.49 L 230.40,326.26 L 224.08,327.75 L 220.97,328.49 L 215.00,329.90 L 212.07,330.60 L 206.47,331.93 L 203.72,332.59 L 198.51,333.84 L 195.95,334.45 L 191.14,335.61 L 188.78,336.18 L 184.37,337.26 L 182.22,337.78 L 178.24,338.76 L 176.30,339.24 L 172.75,340.12 L 171.03,340.55 L 167.94,341.33 L 166.44,341.71 L 163.81,342.39 L 162.55,342.71 L 160.39,343.29 L 159.37,343.56 L 157.69,344.02 L 155.75,344.59 L 155.27,344.74 L 154.51,344.65 L 154.00,344.01 L 154.00,343.86 L 154.42,343.39 L 154.70,343.13 L 155.58,342.52 L 156.06,342.21 L 157.28,341.53 L 159.37,340.52 L 160.11,340.19 L 161.38,339.57 L 161.98,339.27 L 162.96,338.70 L 163.87,338.13 L 164.90,337.02 L 165.29,336.46 L 165.39,335.19 L 164.64,332.90 L 164.25,332.12 L 163.29,331.07 L 162.76,330.63 L 161.42,330.26 L 160.68,330.15 L 158.80,330.43 L 155.20,331.56 L 154.17,331.96 L 151.99,333.16 L 150.90,333.82 L 148.65,335.49 L 147.53,336.38 L 145.28,338.45 L 144.17,339.52 L 142.00,341.89 L 140.93,343.11 L 138.91,345.70 L 137.92,347.02 L 136.11,349.76 L 135.25,351.14 L 133.73,353.94 L 131.87,358.11 L 131.67,358.63 L 131.23,360.01 L 131.00,360.76 L 130.51,362.57 L 130.25,363.52 L 129.72,365.68 L 129.45,366.80 L 128.89,369.25 L 128.32,371.76 L 127.18,377.39 L 125.56,386.22 L 125.41,387.05 L 125.09,388.23 L 124.91,388.76 L 124.37,389.50 L 124.05,389.83 L 123.09,390.33 L 120.98,391.01 L 120.17,391.22 L 118.87,391.47 L 118.25,391.56 L 117.16,391.54 L 116.63,391.49 L 115.57,391.18 L 113.77,390.38 L 112.19,389.57 L 108.98,387.36 L 107.37,386.16 L 104.14,383.27 L 102.54,381.76 L 99.39,378.31 L 97.83,376.53 L 94.84,372.65 L 93.38,370.66 L 90.64,366.46 L 89.31,364.32 L 86.91,359.92 L 85.76,357.70 L 83.78,353.21 L 81.39,346.50 L 80.98,345.13 L 80.38,342.15 L 80.12,340.63 L 79.81,337.38 L 79.69,335.73 L 79.66,332.28 L 79.68,330.53 L 79.93,326.92 L 80.08,325.10 L 80.60,321.39 L 80.89,319.53 L 81.68,315.78 L 82.11,313.91 L 83.16,310.17 L 85.02,304.65 L 85.36,303.73 L 86.32,301.65 L 86.85,300.57 L 88.14,298.19 L 88.82,296.97 L 90.41,294.36 L 91.23,293.03 L 93.07,290.25 L 94.96,287.43 L 99.32,281.53 L 106.43,272.74 L 107.78,271.18 L 109.95,268.66 L 110.96,267.47 L 112.58,265.41 L 113.33,264.40 L 114.54,262.40 L 115.10,261.37 L 116.03,259.04 L 116.47,257.80 L 117.27,254.74 L 117.46,253.92 L 117.85,252.06 L 118.05,251.09 L 118.46,248.92 L 118.66,247.79 L 119.10,245.26 L 119.32,243.94 L 119.81,240.99 L 120.06,239.46 L 120.61,236.04 L 121.54,230.35 L 122.07,227.06 L 123.25,220.77 L 123.85,217.66 L 125.18,211.69 L 125.86,208.75 L 127.36,203.04 L 128.13,200.22 L 129.82,194.73 L 131.56,189.29 L 135.68,178.79 L 142.97,163.20 L 144.67,159.92 L 148.12,154.08 L 149.90,151.23 L 153.90,145.75 L 154.96,144.37 L 157.27,141.57 L 158.46,140.15 L 161.09,137.21 L 162.44,135.71 L 165.45,132.55 L 170.45,127.45 L 172.89,125.01 L 177.91,120.42 L 180.44,118.17 L 185.61,114.00 L 188.21,111.96 L 193.52,108.20 L 196.19,106.38 L 201.62,103.04 L 204.36,101.43 L 209.91,98.52 L 212.71,97.13 L 218.38,94.66 L 221.22,93.48 L 226.99,91.45 L 235.75,88.91 L 239.07,88.08 L 245.49,86.61 L 248.66,85.90 L 254.82,84.67 L 257.86,84.09 L 263.78,83.10 L 266.71,82.64 L 272.40,81.90 L 275.23,81.56 L 280.73,81.07 L 283.46,80.85 L 288.80,80.61 L 291.45,80.52 L 296.64,80.53 L 299.22,80.57 L 304.29,80.83 L 306.81,80.99 L 311.79,81.51 L 314.26,81.80 L 319.17,82.57 L 324.06,83.40 L 333.72,85.85 L 338.55,87.20 L 348.23,90.69 L 350.67,91.62 L 355.57,93.70 L 363.00,97.10 L 365.83,98.47 L 371.32,101.35 L 374.04,102.82 L 379.30,105.91 L 381.89,107.48 L 386.89,110.76 L 389.35,112.42 L 394.06,115.86 L 396.38,117.61 L 400.78,121.20 L 402.94,123.02 L 407.01,126.74 L 409.01,128.62 L 412.72,132.46 L 417.87,138.34 L 419.71,140.60 L 423.05,144.95 L 424.67,147.10 L 427.60,151.34 L 429.02,153.46 L 431.60,157.72 L 432.85,159.86 L 435.15,164.26 L 436.28,166.49 L 438.36,171.18 L 439.38,173.56 L 441.31,178.65 L 442.26,181.26 L 444.11,186.88 L 446.84,196.06 L 447.60,198.72 L 449.08,204.46 L 449.81,207.37 L 451.22,213.35 L 451.90,216.34 L 453.16,222.25 L 453.77,225.16 L 454.83,230.67 L 455.33,233.34 L 456.12,238.13 L 456.30,239.26 L 456.60,241.34 L 456.74,242.34 L 456.96,244.13 L 457.05,244.98 L 457.17,246.43 L 457.22,247.12 L 457.24,248.19 L 457.23,248.68 L 457.14,249.35 L 456.87,249.84 L 456.43,250.01 L 455.65,250.95 L 455.46,251.25 L 455.09,252.06 L 454.91,252.51 L 454.54,253.65 L 454.35,254.26 L 453.98,255.77 L 453.78,256.58 L 453.38,258.50 L 453.17,259.53 L 452.73,261.92 L 451.99,266.09 L 451.71,267.80 L 450.99,271.66 L 450.62,273.62 L 449.81,277.64 L 449.40,279.63 L 448.60,283.33 L 447.52,288.00 L 446.86,290.61 L 445.63,296.18 L 445.35,297.49 L 444.89,299.81 L 444.43,302.50 L 444.23,303.86 L 443.52,306.88 L 443.31,307.68 L 442.78,309.42 L 442.50,310.31 L 441.82,312.28 L 441.46,313.30 L 440.61,315.55 L 440.16,316.71 L 439.12,319.29 L 438.58,320.63 L 437.33,323.58 L 435.21,328.50 L 434.14,330.97 L 432.06,336.03 L 431.59,337.21 L 430.81,339.24 L 430.00,341.50 L 429.62,342.70 L 428.51,345.57 L 428.19,346.35 L 427.43,348.16 L 427.02,349.11 L 426.04,351.30 L 425.52,352.46 L 424.28,355.12 L 423.63,356.53 L 422.10,359.76 L 421.29,361.46 L 419.43,365.34 L 416.22,372.00 L 415.25,373.99 L 413.16,378.42 L 412.11,380.66 L 410.02,385.18 L 409.01,387.40 L 407.18,391.47 L 406.75,392.44 L 405.98,394.20 L 404.99,396.50 L 402.35,402.79 L 396.46,415.17 L 393.45,421.28 L 387.05,432.94 L 385.43,435.78 L 382.14,441.24 L 380.49,443.93 L 377.17,449.04 L 375.51,451.54 L 372.19,456.23 L 367.27,462.71 L 366.47,463.71 L 364.42,466.12 L 363.33,467.38 L 360.83,470.18 L 358.26,473.04 L 352.50,479.16 L 351.06,480.67 L 348.25,483.56 L 346.87,484.97 L 344.28,487.53 L 343.04,488.76 L 340.86,490.82 L 338.22,493.16 L 337.73,493.57 L 336.92,494.37 L 336.55,494.77 L 336.02,495.51 L 335.79,495.87 L 335.55,496.51 L 335.57,497.31 L 335.67,497.57 L 335.43,498.07 L 335.24,498.31 L 334.45,498.78 L 334.00,499.01 L 332.71,499.45 L 332.01,499.66 L 330.27,500.07 L 329.35,500.26 L 327.19,500.63 L 326.06,500.81 L 323.53,501.13 L 322.22,501.29 L 319.36,501.57 L 317.90,501.71 L 314.75,501.94 L 311.54,502.16 L 304.44,502.46 L 300.81,502.58 L 293.12,502.65 L 289.24,502.65 L 281.31,502.47 L 277.34,502.35 M 327.08,267.55 L 329.81,267.19 L 334.93,266.33 L 337.43,265.87 L 342.09,264.83 L 344.37,264.28 L 348.58,263.05 L 350.64,262.41 L 354.42,260.98 L 356.26,260.24 L 359.63,258.61 L 361.26,257.77 L 364.23,255.94 L 365.67,254.99 L 368.25,252.94 L 371.71,249.63 L 372.58,248.67 L 374.09,246.92 L 374.81,246.06 L 376.01,244.48 L 376.57,243.70 L 377.49,242.23 L 377.92,241.51 L 378.58,240.10 L 379.18,238.70 L 379.68,235.88 L 379.59,231.19 L 379.41,229.61 L 378.43,226.47 L 377.83,224.90 L 375.99,221.73 L 374.96,220.14 L 372.18,216.83 L 366.90,211.60 L 365.70,210.52 L 362.95,208.55 L 361.52,207.61 L 358.31,205.92 L 356.65,205.11 L 352.98,203.69 L 351.09,203.02 L 346.95,201.87 L 344.82,201.33 L 340.19,200.45 L 337.82,200.04 L 332.71,199.43 L 330.09,199.15 L 324.48,198.80 L 315.50,198.57 L 311.29,198.55 L 303.33,198.88 L 299.43,199.10 L 292.10,199.90 L 288.52,200.36 L 281.83,201.63 L 278.57,202.32 L 272.53,204.06 L 269.60,204.99 L 264.22,207.19 L 261.62,208.35 L 256.93,211.01 L 254.66,212.40 L 250.65,215.52 L 245.43,220.71 L 243.73,222.70 L 240.79,226.51 L 239.40,228.36 L 237.18,231.72 L 236.67,232.52 L 235.83,233.99 L 235.44,234.70 L 234.83,235.97 L 234.56,236.57 L 234.21,237.61 L 234.00,238.86 L 234.00,239.37 L 234.24,240.65 L 234.39,241.32 L 234.89,242.86 L 235.45,244.45 L 237.12,247.96 L 238.02,249.70 L 240.04,252.88 L 240.55,253.61 L 241.55,254.87 L 242.99,256.34 L 244.51,257.62 L 248.19,259.92 L 250.14,261.03 L 254.66,262.98 L 257.02,263.91 L 262.38,265.52 L 271.34,267.52 L 271.95,267.63 L 273.44,267.83 L 274.22,267.93 L 276.00,268.10 L 277.86,268.27 L 282.32,268.52 L 284.64,268.64 L 289.79,268.78 L 292.41,268.83 L 297.91,268.86 L 300.68,268.87 L 306.20,268.79 L 308.94,268.73 L 314.16,268.54 L 316.70,268.43 L 321.28,268.13 L 322.37,268.05 L 324.38,267.86 L 325.34,267.77 M 221.64,220.47 L 222.47,219.99 L 223.96,218.88 L 224.68,218.30 L 225.97,217.02 L 227.21,215.71 L 229.06,212.68 L 229.89,211.11 L 230.92,207.74 L 231.33,206.02 L 231.54,202.50 L 231.54,200.74 L 230.92,197.26 L 230.50,195.55 L 229.06,192.32 L 228.23,190.75 L 225.97,187.97 L 225.35,187.32 L 223.96,186.12 L 221.64,184.53 L 220.80,184.04 L 219.27,183.31 L 218.51,182.98 L 216.96,182.53 L 216.16,182.34 L 214.40,182.12 L 211.28,182.00 L 209.39,182.00 L 206.14,182.36 L 204.60,182.61 L 201.89,183.53 L 200.58,184.07 L 198.21,185.63 L 194.80,188.80 L 193.81,189.89 L 192.27,192.18 L 191.56,193.33 L 190.56,195.69 L 190.13,196.88 L 189.63,199.27 L 189.45,200.46 L 189.42,202.84 L 189.46,204.02 L 189.87,206.34 L 190.12,207.49 L 190.91,209.70 L 191.36,210.79 L 192.50,212.85 L 193.12,213.86 L 194.58,215.73 L 195.34,216.63 L 197.08,218.25 L 197.98,219.03 L 199.95,220.36 L 200.96,220.99 L 203.13,221.99 L 204.23,222.44 L 206.56,223.06 L 207.74,223.32 L 210.18,223.52 L 211.42,223.56 L 213.94,223.28 L 215.21,223.08 L 217.78,222.29 L 219.07,221.82 M 396.69,212.56 L 397.59,212.14 L 399.24,211.14 L 400.03,210.61 L 401.46,209.40 L 402.15,208.77 L 403.37,207.40 L 403.95,206.69 L 404.95,205.18 L 405.90,203.63 L 407.14,200.24 L 407.65,198.52 L 408.01,194.95 L 408.09,193.16 L 407.56,189.63 L 407.19,187.89 L 405.77,184.65 L 405.36,183.86 L 404.37,182.39 L 403.84,181.67 L 402.62,180.34 L 401.99,179.70 L 400.54,178.55 L 398.11,177.06 L 396.80,176.39 L 394.13,175.45 L 392.80,175.04 L 390.12,174.61 L 388.79,174.46 L 386.16,174.52 L 384.86,174.62 L 382.34,175.17 L 381.10,175.50 L 378.75,176.51 L 377.60,177.07 L 375.47,178.54 L 374.44,179.32 L 372.60,181.22 L 370.23,184.53 L 369.75,185.35 L 369.08,186.80 L 368.78,187.52 L 368.42,189.00 L 368.27,189.78 L 368.17,191.62 L 368.24,195.11 L 368.29,196.19 L 368.52,198.19 L 368.66,199.16 L 369.08,200.94 L 369.31,201.81 L 369.92,203.41 L 370.25,204.19 L 371.08,205.61 L 371.51,206.31 L 372.55,207.58 L 373.10,208.20 L 374.38,209.35 L 375.05,209.91 L 376.56,210.94 L 379.13,212.38 L 380.76,213.19 L 383.69,214.21 L 385.12,214.63 L 387.85,214.86 L 389.22,214.87 L 392.05,214.30 L 393.50,213.92 M 473.67,344.33 L 473.48,344.15 L 473.20,343.27 L 473.00,341.64 L 473.00,341.14 L 473.03,340.52 L 473.05,340.27 L 473.19,340.14 L 473.28,340.13 L 473.63,340.48 L 474.47,341.56 L 474.87,342.09 L 475.51,343.15 L 475.97,344.25 L 475.98,344.48 L 475.75,344.78 L 475.61,344.90 L 475.17,344.98 L 474.70,344.99 Z" fill="rgba(253,225,82,1)"/>
</g>
</svg>